<?xml version="1.0" encoding="UTF-8" standalone="no"?>
<svg
   xmlns:dc="http://purl.org/dc/elements/1.1/"
   xmlns:cc="http://creativecommons.org/ns#"
   xmlns:rdf="http://www.w3.org/1999/02/22-rdf-syntax-ns#"
   xmlns:svg="http://www.w3.org/2000/svg"
   xmlns="http://www.w3.org/2000/svg"
   xmlns:sodipodi="http://sodipodi.sourceforge.net/DTD/sodipodi-0.dtd"
   xmlns:inkscape="http://www.inkscape.org/namespaces/inkscape"
   version="1.1"
   id="svg2"
   xml:space="preserve"
   width="854.95374"
   height="284.02505"
   viewBox="0 0 854.95377 284.02505"
   sodipodi:docname="architecture.drawio.svg"
   inkscape:version="1.0.1 (3bc2e813f5, 2020-09-07)"><metadata
     id="metadata8"><rdf:RDF><cc:Work
         rdf:about=""><dc:format>image/svg+xml</dc:format><dc:type
           rdf:resource="http://purl.org/dc/dcmitype/StillImage" /><dc:title></dc:title></cc:Work></rdf:RDF></metadata><defs
     id="defs6"><clipPath
       clipPathUnits="userSpaceOnUse"
       id="clipPath18"><path
         d="M 0,0 H 3508.3333 V 2485.8191 H 0 Z"
         clip-rule="evenodd"
         id="path16" /></clipPath><clipPath
       clipPathUnits="userSpaceOnUse"
       id="clipPath32"><path
         d="M 0,0 H 3508.3333 V 2482.8206 H 0 Z"
         clip-rule="evenodd"
         id="path30" /></clipPath></defs><sodipodi:namedview
     pagecolor="#ffffff"
     bordercolor="#666666"
     borderopacity="1"
     objecttolerance="10"
     gridtolerance="10"
     guidetolerance="10"
     inkscape:pageopacity="0"
     inkscape:pageshadow="2"
     inkscape:window-width="3840"
     inkscape:window-height="2081"
     id="namedview4"
     showgrid="false"
     fit-margin-top="0"
     fit-margin-left="0"
     fit-margin-right="0"
     fit-margin-bottom="0"
     inkscape:zoom="1.1322334"
     inkscape:cx="353.3051"
     inkscape:cy="249.79835"
     inkscape:window-x="-9"
     inkscape:window-y="-9"
     inkscape:window-maximized="1"
     inkscape:current-layer="g10" /><g
     id="g10"
     inkscape:groupmode="layer"
     inkscape:label="architecture.drawio"
     transform="matrix(0.31999998,0,0,0.31999998,-95.954407,-42.219939)"><g
       id="g26"><g
         id="g28"
         clip-path="url(#clipPath32)"><g
           id="g34"
           transform="matrix(2.9985754,0,0,2.9985754,1.4992877,1.4992877)"><path
             d="m 115,60 h 380 c 0.98489,0 1.96036,0.09607 2.92633,0.288219 0.96597,0.192147 1.90393,0.476674 2.81387,0.853581 0.90992,0.376911 1.77436,0.838962 2.5933,1.38615 0.81894,0.547188 1.57663,1.169003 2.27307,1.865444 0.69644,0.696434 1.31823,1.454117 1.86545,2.273041 0.54715,0.818932 1.00918,1.683365 1.3861,2.593308 0.37693,0.909935 0.66144,1.8479 0.85361,2.813896 C 509.9039,73.039635 509.99997,74.015083 510,75 v 70 c -3e-5,0.98491 -0.0961,1.96034 -0.28827,2.92633 -0.19217,0.96599 -0.47668,1.90396 -0.85358,2.8139 -0.37692,0.90995 -0.83898,1.77439 -1.38617,2.59331 -0.54718,0.81893 -1.16897,1.57662 -1.86541,2.27306 -0.69644,0.69642 -1.45413,1.31823 -2.27307,1.86543 -0.81894,0.54718 -1.68338,1.00923 -2.5933,1.38616 -0.90994,0.3769 -1.8479,0.66143 -2.81387,0.85359 C 496.96036,159.90391 495.98489,159.99998 495,160 H 115 c -0.98492,-2e-5 -1.96036,-0.0961 -2.92636,-0.28822 -0.966,-0.19216 -1.90396,-0.47669 -2.81391,-0.85359 -0.90993,-0.37693 -1.77436,-0.83898 -2.5933,-1.38616 -0.81892,-0.5472 -1.5766,-1.16901 -2.27304,-1.86543 -0.69644,-0.69644 -1.31826,-1.45413 -1.86544,-2.27306 -0.54719,-0.81892 -1.00924,-1.68336 -1.38616,-2.59331 -0.37691,-0.90994 -0.66144,-1.84791 -0.85358,-2.8139 C 100.09606,146.96034 99.999992,145.98491 100,145 V 75 c -8e-6,-0.984917 0.0961,-1.960365 0.28821,-2.926361 0.19214,-0.965996 0.47667,-1.903961 0.85358,-2.813896 0.37692,-0.909943 0.83897,-1.774376 1.38616,-2.5933 0.54718,-0.818932 1.169,-1.576615 1.86544,-2.273049 0.69644,-0.696441 1.45412,-1.318256 2.27304,-1.865444 0.81894,-0.547188 1.68337,-1.009239 2.5933,-1.38615 0.90995,-0.376907 1.84791,-0.661434 2.8139,-0.853584 C 113.03963,60.096073 114.01508,60 115,60 Z"
             style="fill:#f5f5f5;fill-opacity:1;fill-rule:nonzero;stroke:none"
             id="path36" /><path
             d="m 121,59.5 h 3 v 1 h -3 z m 6,0 h 3 v 1 h -3 z m 6,0 h 3 v 1 h -3 z m 6,0 h 3 v 1 h -3 z m 6,0 h 3 v 1 h -3 z m 6,0 h 3 v 1 h -3 z m 6,0 h 3 v 1 h -3 z m 6,0 h 3 v 1 h -3 z m 6,0 h 3 v 1 h -3 z m 6,0 h 3 v 1 h -3 z m 6,0 h 3 v 1 h -3 z m 6,0 h 3 v 1 h -3 z m 6,0 h 3 v 1 h -3 z m 6,0 h 3 v 1 h -3 z m 6,0 h 3 v 1 h -3 z m 6,0 h 3 v 1 h -3 z m 6,0 h 3 v 1 h -3 z m 6,0 h 3 v 1 h -3 z m 6,0 h 3 v 1 h -3 z m 6,0 h 3 v 1 h -3 z m 6,0 h 3 v 1 h -3 z m 6,0 h 3 v 1 h -3 z m 6,0 h 3 v 1 h -3 z m 6,0 h 3 v 1 h -3 z m 6,0 h 3 v 1 h -3 z m 6,0 h 3 v 1 h -3 z m 6,0 h 3 v 1 h -3 z m 6,0 h 3 v 1 h -3 z m 6,0 h 3 v 1 h -3 z m 6,0 h 3 v 1 h -3 z m 6,0 h 3 v 1 h -3 z m 6,0 h 3 v 1 h -3 z m 6,0 h 3 v 1 h -3 z m 6,0 h 3 v 1 h -3 z m 6,0 h 3 v 1 h -3 z m 6,0 h 3 v 1 h -3 z m 6,0 h 3 v 1 h -3 z m 6,0 h 3 v 1 h -3 z m 6,0 h 3 v 1 h -3 z m 6,0 h 3 v 1 h -3 z m 6,0 h 3 v 1 h -3 z m 6,0 h 3 v 1 h -3 z m 6,0 h 3 v 1 h -3 z m 6,0 h 3 v 1 h -3 z m 6,0 h 3 v 1 h -3 z m 6,0 h 3 v 1 h -3 z m 6,0 h 3 v 1 h -3 z m 6,0 h 3 v 1 h -3 z m 6,0 h 3 v 1 h -3 z m 6,0 h 3 v 1 h -3 z m 6,0 h 3 v 1 h -3 z m 6,0 h 3 v 1 h -3 z m 6,0 h 3 v 1 h -3 z m 6,0 h 3 v 1 h -3 z m 6,0 h 3 v 1 h -3 z m 6,0 h 3 v 1 h -3 z m 6,0 h 3 v 1 h -3 z m 6,0 h 3 v 1 h -3 z m 6,0 h 3 v 1 h -3 z m 6,0 h 3 v 1 h -3 z m 6,0 h 3 v 1 h -3 z m 6,0 h 3 v 1 h -3 z m 6,0 h 2 c 0.32925,0 0.65817,0.01048 0.98682,0.03144 l -0.0637,0.99797 C 495.61575,60.509804 495.30801,60.5 495,60.5 h -2 z m 6.04291,0.536549 c 1.02048,0.275714 2.00247,0.651886 2.94598,1.128517 l -0.45093,0.89257 c -0.88266,-0.445896 -1.80127,-0.797794 -2.75586,-1.055702 z m 5.57565,2.808883 c 0.82956,0.656483 1.58408,1.390255 2.26349,2.201329 l -0.7666,0.642135 c -0.63559,-0.758751 -1.3414,-1.445183 -2.11743,-2.059292 z m 4.0206,4.790921 c 0.4996,0.92517 0.90088,1.891403 1.20383,2.898704 l -0.95758,0.288071 c -0.28351,-0.942246 -0.65891,-1.846146 -1.12619,-2.711708 z m 1.79767,5.966003 C 510.47894,74.067299 510.5,74.53318 510.5,75 v 1.589905 h -1 V 75 c -3e-5,-0.436775 -0.0197,-0.872589 -0.0591,-1.307434 l 0.99591,-0.09021 z m 0.0632,5.987549 v 3 h -1 v -3 z m 0,6 v 3 h -1 v -3 z m 0,6 v 3 h -1 v -3 z m 0,6 v 3.000005 h -1 v -3.000005 z m 0,6.000005 v 3 h -1 v -3 z m 0,6 v 3 h -1 v -3 z m 0,6 v 3 h -1 v -3 z m 0,6 v 3 h -1 v -3 z m 0,6 v 2.99999 h -1 v -2.99999 z m 0,5.99999 v 3 h -1 v -3 z m 0,6 v 3 h -1 v -3 z m -0.0108,5.98948 c -0.0385,1.02778 -0.17786,2.04161 -0.418,3.04144 l -0.97235,-0.23358 c 0.22464,-0.93529 0.35498,-1.8837 0.39102,-2.84525 l 0.99933,0.0374 z m -1.46952,6.03122 c -0.44458,0.94262 -0.97873,1.8314 -1.60241,2.66635 l -0.80109,-0.59851 c 0.58353,-0.78101 1.08322,-1.61246 1.49902,-2.49436 z m -3.73901,4.98936 c -0.78662,0.69716 -1.63538,1.30797 -2.5463,1.83243 l -0.49896,-0.86661 c 0.85202,-0.49062 1.64603,-1.06201 2.38199,-1.7142 z m -5.39426,3.10968 c -1.0018,0.33278 -2.02679,0.56082 -3.07495,0.68414 l -0.11688,-0.99316 c 0.98062,-0.11539 1.93948,-0.32872 2.87659,-0.63999 z M 493.82025,160.5 h -3 v -1 h 3 z m -6,0 h -3 v -1 h 3 z m -6,0 h -3 v -1 h 3 z m -6,0 h -3 v -1 h 3 z m -6,0 h -3 v -1 h 3 z m -6,0 h -3 v -1 h 3 z m -6,0 h -3 v -1 h 3 z m -6,0 h -3 v -1 h 3 z m -6,0 h -3 v -1 h 3 z m -6,0 h -3 v -1 h 3 z m -6,0 h -3 v -1 h 3 z m -6,0 h -3 v -1 h 3 z m -6,0 h -3 v -1 h 3 z m -6,0 h -3 v -1 h 3 z m -6,0 h -3 v -1 h 3 z m -6,0 h -3 v -1 h 3 z m -6,0 h -3 v -1 h 3 z m -6,0 h -3 v -1 h 3 z m -6,0 h -3 v -1 h 3 z m -6,0 h -3 v -1 h 3 z m -6,0 h -3 v -1 h 3 z m -6,0 h -3 v -1 h 3 z m -6,0 h -3 v -1 h 3 z m -6,0 h -3 v -1 h 3 z m -6,0 h -3 v -1 h 3 z m -6,0 h -3 v -1 h 3 z m -6,0 h -3 v -1 h 3 z m -6,0 h -3 v -1 h 3 z m -6,0 h -3 v -1 h 3 z m -6,0 h -3 v -1 h 3 z m -6,0 h -3 v -1 h 3 z m -6,0 h -3 v -1 h 3 z m -6,0 h -3 v -1 h 3 z m -6,0 h -3 v -1 h 3 z m -6,0 h -3 v -1 h 3 z m -6,0 h -3 v -1 h 3 z m -6,0 h -3 v -1 h 3 z m -6,0 h -3 v -1 h 3 z m -6,0 h -3 v -1 h 3 z m -6,0 h -3 v -1 h 3 z m -6,0 h -2.99998 v -1 h 2.99998 z m -6,0 h -3 v -1 h 3 z m -6.00001,0 h -2.99999 v -1 h 2.99999 z m -5.99999,0 h -3 v -1 h 3 z m -6,0 h -3 v -1 h 3 z m -6,0 h -3 v -1 h 3 z m -6,0 h -3 v -1 h 3 z m -6,0 h -3 v -1 h 3 z m -6,0 h -3 v -1 h 3 z m -6,0 h -3 v -1 h 3 z m -6,0 h -3 v -1 h 3 z m -6,0 h -3 v -1 h 3 z m -6,0 h -3 v -1 h 3 z m -6,0 h -3 v -1 h 3 z m -6,0 h -3 v -1 h 3 z m -6,0 h -3 v -1 h 3 z m -6,0 h -3 v -1 h 3 z m -6,0 h -3 v -1 h 3 z m -6,0 h -3 v -1 h 3 z m -6,0 h -3 v -1 h 3 z m -6,0 h -3 v -1 h 3 z m -6,0 h -3 v -1 h 3 z m -6,0 h -3 v -1 h 3 z m -6,0 h -0.82019 c -0.729,0 -1.45449,-0.0512 -2.17645,-0.15358 l 0.14042,-0.99008 c 0.67535,0.0958 1.35403,0.14367 2.03603,0.14366 h 0.82019 z m -6.0752,-0.91802 c -0.9786,-0.35267 -1.9122,-0.79928 -2.80081,-1.33985 l 0.51972,-0.85434 c 0.8313,0.50569 1.70467,0.9235 2.62012,1.25343 z m -5.30631,-3.23701 c -0.77356,-0.72009 -1.46621,-1.51105 -2.07797,-2.37286 l 0.81544,-0.57886 c 0.57235,0.80626 1.22031,1.54619 1.94389,2.21979 z m -3.61109,-5.0686 c -0.43161,-0.97457 -0.75921,-1.98297 -0.982795,-3.02523 l 0.977755,-0.20974 c 0.20915,0.97494 0.51562,1.91829 0.91939,2.83003 z M 99.5017,145.22523 C 99.500549,145.15012 99.5,145.07504 99.5,145 v -2.76965 h 1 V 145 c 0,0.0702 5.1e-4,0.14046 0.002,0.21068 l -0.99989,0.0146 z m -0.0016,-5.99488 v -3 h 1 v 3 z m 0,-6 v -3 h 1 v 3 z m 0,-6 v -3 h 1 v 3 z m 0,-6 v -3 h 1 v 3 z m 0,-6 v -3 h 1 v 3 z m 0,-6 v -3 h 1 v 3 z m 0,-6 v -3 h 1 v 3 z m 0,-6.000003 v -3 h 1 v 3 z m 0,-6 v -3 h 1 v 3 z m 0,-6 v -3 h 1 v 3 z m 0,-6 v -3 h 1 v 3 z M 99.600273,73.2397 c 0.119759,-1.047615 0.344078,-2.072349 0.672957,-3.074196 l 0.95012,0.311905 c -0.30768,0.937233 -0.51753,1.895851 -0.62955,2.875862 z m 1.941257,-5.928619 c 0.52121,-0.912346 1.12896,-1.762924 1.82323,-2.55175 l 0.75066,0.66069 c -0.64948,0.737907 -1.218,1.533615 -1.70559,2.387108 z m 4.13903,-4.696472 c 0.83312,-0.626881 1.72045,-1.164234 2.662,-1.612061 l 0.42952,0.903061 c -0.8808,0.41893 -1.71088,0.921616 -2.49026,1.508057 z m 5.64655,-2.673161 c 1.00026,-0.243961 2.01474,-0.386848 3.04343,-0.428669 l 0.0406,0.999176 c -0.96235,0.03912 -1.91138,0.172795 -2.8471,0.401013 l -0.23695,-0.97152 z M 115,59.5 h 3 v 1 h -3 z"
             style="fill:#9f9f9f;fill-opacity:1;fill-rule:nonzero;stroke:none"
             id="path38" /><path
             d="m 595,140 h 380 c 0.98486,0 1.96027,0.0961 2.92621,0.28821 0.966,0.19215 1.90393,0.47667 2.81384,0.85357 0.90997,0.37691 1.77435,0.83896 2.59326,1.38614 0.81903,0.5472 1.57672,1.16902 2.2732,1.86547 0.69635,0.69644 1.31817,1.45411 1.86535,2.27304 0.54718,0.81892 1.00928,1.68336 1.38617,2.5933 0.37696,0.90995 0.6615,1.84792 0.85364,2.81391 0.1922,0.96599 0.28827,1.94144 0.28833,2.92636 v 70 c -6e-5,0.98491 -0.0962,1.96034 -0.28839,2.92633 -0.19208,0.96599 -0.47662,1.90396 -0.85358,2.8139 -0.37689,0.90993 -0.83899,1.77436 -1.38617,2.59328 -0.54718,0.81893 -1.169,1.57662 -1.86535,2.27307 -0.69648,0.69643 -1.45417,1.31824 -2.2732,1.86544 -0.81891,0.54716 -1.68329,1.00921 -2.59326,1.38613 -0.90991,0.37691 -1.84784,0.66144 -2.81378,0.8536 C 976.96027,239.9039 975.98486,239.99998 975,240 H 595 c -0.98492,-2e-5 -1.96045,-0.0961 -2.92645,-0.28825 -0.96601,-0.19216 -1.90399,-0.47669 -2.81391,-0.8536 -0.90997,-0.37692 -1.77441,-0.83897 -2.59332,-1.38615 -0.81891,-0.54718 -1.57654,-1.16899 -2.27295,-1.86542 -0.69647,-0.69645 -1.31824,-1.45413 -1.86542,-2.27305 -0.54718,-0.81893 -1.00927,-1.68337 -1.38617,-2.5933 -0.37689,-0.90994 -0.66143,-1.84791 -0.85363,-2.8139 C 580.09607,226.96034 580,225.98491 580,225 v -70 c 0,-0.98492 0.0961,-1.96037 0.28815,-2.92636 0.1922,-0.96599 0.47674,-1.90396 0.85363,-2.81391 0.3769,-0.90994 0.83893,-1.77438 1.38611,-2.5933 0.54718,-0.81893 1.16901,-1.5766 1.86548,-2.27304 0.69641,-0.69645 1.45404,-1.31827 2.27295,-1.86547 0.81891,-0.54718 1.68335,-1.00923 2.59332,-1.38614 0.90992,-0.3769 1.8479,-0.66142 2.81391,-0.85357 C 593.03955,140.09607 594.01508,140 595,140 Z"
             style="fill:#f5f5f5;fill-opacity:1;fill-rule:nonzero;stroke:none"
             id="path40" /><path
             d="m 601,139.5 h 3 v 1 h -3 z m 6,0 h 3 v 1 h -3 z m 6,0 h 3 v 1 h -3 z m 6,0 h 3 v 1 h -3 z m 6,0 h 3 v 1 h -3 z m 6,0 h 3 v 1 h -3 z m 6,0 h 3 v 1 h -3 z m 6,0 h 3 v 1 h -3 z m 6,0 h 3 v 1 h -3 z m 6,0 h 3 v 1 h -3 z m 6,0 h 3 v 1 h -3 z m 6,0 h 3 v 1 h -3 z m 6,0 h 3 v 1 h -3 z m 6,0 h 3 v 1 h -3 z m 6,0 h 3 v 1 h -3 z m 6,0 h 3 v 1 h -3 z m 6,0 h 3 v 1 h -3 z m 6,0 h 3 v 1 h -3 z m 6,0 h 3 v 1 h -3 z m 6,0 h 3 v 1 h -3 z m 6,0 h 3 v 1 h -3 z m 6,0 h 3 v 1 h -3 z m 6,0 h 3 v 1 h -3 z m 6,0 h 3 v 1 h -3 z m 6,0 h 3 v 1 h -3 z m 6,0 h 3 v 1 h -3 z m 6,0 h 3 v 1 h -3 z m 6,0 h 3 v 1 h -3 z m 6,0 h 3 v 1 h -3 z m 6,0 h 3 v 1 h -3 z m 6,0 h 3 v 1 h -3 z m 6,0 h 3 v 1 h -3 z m 6,0 h 3 v 1 h -3 z m 6,0 h 3 v 1 h -3 z m 6,0 h 3 v 1 h -3 z m 6,0 h 3 v 1 h -3 z m 6,0 h 3 v 1 h -3 z m 6,0 h 3 v 1 h -3 z m 6,0 h 3 v 1 h -3 z m 6,0 h 3 v 1 h -3 z m 6,0 h 3 v 1 h -3 z m 6,0 h 3 v 1 h -3 z m 6,0 h 3 v 1 h -3 z m 6,0 h 3 v 1 h -3 z m 6,0 h 3 v 1 h -3 z m 6,0 h 3 v 1 h -3 z m 6,0 h 3 v 1 h -3 z m 6,0 h 3 v 1 h -3 z m 6,0 h 3 v 1 h -3 z m 6,0 h 3 v 1 h -3 z m 6,0 h 3 v 1 h -3 z m 6,0 h 3 v 1 h -3 z m 6,0 h 3 v 1 h -3 z m 6,0 h 3 v 1 h -3 z m 6,0 h 3 v 1 h -3 z m 6,0 h 3 v 1 h -3 z m 6,0 h 3 v 1 h -3 z m 6,0 h 3 v 1 h -3 z m 6,0 h 3 v 1 h -3 z m 6,0 h 3 v 1 h -3 z m 6,0 h 3 v 1 h -3 z m 6,0 h 3 v 1 h -3 z m 6,0 h 2 c 0.32941,1e-5 0.65839,0.0105 0.98688,0.0315 l -0.0636,0.99798 c -0.3075,-0.0196 -0.61524,-0.0294 -0.92328,-0.0294 h -2 v -1 z m 6.04291,0.53654 c 1.02057,0.27575 2.00256,0.65192 2.94598,1.12853 l -0.45093,0.89258 c -0.88256,-0.44585 -1.8012,-0.79775 -2.75592,-1.05571 z m 5.57568,2.8089 c 0.82965,0.65651 1.58411,1.39029 2.26343,2.20136 l -0.7666,0.64212 c -0.63544,-0.75862 -1.34125,-1.44505 -2.11743,-2.0593 z m 4.02051,4.7909 c 0.49969,0.92544 0.901,1.89167 1.20392,2.89868 l -0.95764,0.28805 c -0.28345,-0.94223 -0.65882,-1.84611 -1.12616,-2.71164 z m 1.79779,5.96606 c 0.0421,0.46449 0.0631,0.93034 0.0631,1.39755 v 1.58992 h -1 v -1.58982 c 0,-0.43688 -0.0197,-0.87275 -0.0591,-1.30759 l 0.99597,-0.0901 z m 0.0631,5.98747 v 3 h -1 v -3 z m 0,6 v 3 h -1 v -3 z m 0,6 v 3 h -1 v -3 z m 0,6 v 3 h -1 v -3 z m 0,6 v 3 h -1 v -3 z m 0,6 v 3 h -1 v -3 z m 0,6 v 3 h -1 v -3 z m 0,6 v 3 h -1 v -3 z m 0,6 v 3 h -1 v -3 z m 0,6 v 3 h -1 v -3 z m 0,6 v 3 h -1 v -3 z m -0.0108,5.98955 c -0.0385,1.02713 -0.17786,2.04091 -0.41797,3.04132 l -0.97241,-0.23346 c 0.22473,-0.93618 0.3551,-1.88466 0.39111,-2.84539 l 0.99927,0.0375 z m -1.46955,6.03113 c -0.44439,0.94278 -0.97851,1.83156 -1.60229,2.66634 l -0.80115,-0.59848 c 0.58344,-0.78084 1.08307,-1.61229 1.4989,-2.49434 z m -3.73901,4.98935 c -0.78656,0.69713 -1.63525,1.30795 -2.54614,1.83244 l -0.49903,-0.86657 c 0.85212,-0.49068 1.64612,-1.06211 2.38196,-1.71425 z m -5.39429,3.10971 c -1.00152,0.33275 -2.02649,0.56081 -3.07489,0.68417 l -0.11682,-0.99316 c 0.98065,-0.1154 1.93945,-0.32875 2.8764,-0.64002 z M 973.82018,240.5 h -3 v -1 h 3 z m -6,0 h -3 v -1 h 3 z m -6,0 h -3 v -1 h 3 z m -6,0 h -3 v -1 h 3 z m -6,0 h -3 v -1 h 3 z m -6,0 h -3 v -1 h 3 z m -6,0 h -3 v -1 h 3 z m -6,0 h -3 v -1 h 3 z m -6,0 h -3 v -1 h 3 z m -6,0 h -3 v -1 h 3 z m -6,0 h -3 v -1 h 3 z m -6,0 h -3 v -1 h 3 z m -6,0 h -3 v -1 h 3 z m -6,0 h -3 v -1 h 3 z m -6,0 h -3 v -1 h 3 z m -6,0 h -3 v -1 h 3 z m -6,0 h -3 v -1 h 3 z m -6,0 h -3 v -1 h 3 z m -6,0 h -3 v -1 h 3 z m -6,0 h -3 v -1 h 3 z m -6,0 h -3 v -1 h 3 z m -6,0 h -3 v -1 h 3 z m -6,0 h -3 v -1 h 3 z m -6,0 h -3 v -1 h 3 z m -6,0 h -3 v -1 h 3 z m -6,0 h -3 v -1 h 3 z m -6,0 h -3 v -1 h 3 z m -6,0 h -3 v -1 h 3 z m -6,0 h -3 v -1 h 3 z m -6,0 h -3 v -1 h 3 z m -6,0 h -3 v -1 h 3 z m -6,0 h -3 v -1 h 3 z m -6,0 h -3 v -1 h 3 z m -6,0 h -3 v -1 h 3 z m -6,0 h -3 v -1 h 3 z m -6,0 h -3 v -1 h 3 z m -6,0 h -3 v -1 h 3 z m -6,0 h -3 v -1 h 3 z m -6,0 h -3 v -1 h 3 z m -6,0 h -3 v -1 h 3 z m -6,0 h -3 v -1 h 3 z m -6,0 h -3 v -1 h 3 z m -6,0 h -3 v -1 h 3 z m -6,0 h -3 v -1 h 3 z m -6,0 h -3 v -1 h 3 z m -6,0 h -3 v -1 h 3 z m -6,0 h -3 v -1 h 3 z m -6,0 h -3 v -1 h 3 z m -6,0 h -3 v -1 h 3 z m -6,0 h -3 v -1 h 3 z m -6,0 h -3 v -1 h 3 z m -6,0 h -3 v -1 h 3 z m -6,0 h -3 v -1 h 3 z m -6,0 h -3 v -1 h 3 z m -6,0 h -3 v -1 h 3 z m -6,0 h -3 v -1 h 3 z m -6,0 h -3 v -1 h 3 z m -6,0 h -3 v -1 h 3 z m -6,0 h -3 v -1 h 3 z m -6,0 h -3 v -1 h 3 z m -6,0 h -3 v -1 h 3 z m -6,0 h -3 v -1 h 3 z m -6,0 h -3 v -1 h 3 z m -6,0 h -0.82019 c -0.72894,-2e-5 -1.45447,-0.0512 -2.17645,-0.15358 l 0.14038,-0.99008 c 0.67535,0.0958 1.354,0.14368 2.03607,0.14366 h 0.82019 z m -6.07519,-0.918 c -0.97846,-0.3526 -1.91205,-0.79922 -2.80085,-1.33989 l 0.51978,-0.85434 c 0.8316,0.50589 1.70495,0.92371 2.62005,1.25347 L 589.745,239.582 Z m -5.30634,-3.23704 c -0.77362,-0.72017 -1.46631,-1.51111 -2.078,-2.37285 l 0.81543,-0.57889 c 0.57232,0.80621 1.22027,1.54616 1.94397,2.21983 z m -3.61108,-5.06864 c -0.43171,-0.97493 -0.75928,-1.98334 -0.98279,-3.02522 l 0.97778,-0.20975 c 0.20911,0.97492 0.51556,1.91828 0.91931,2.83006 z m -1.32593,-6.05115 C 579.50055,225.14957 579.5,225.07451 579.5,225 v -2.76971 h 1 V 225 c 0,0.0704 4.9e-4,0.14059 0.002,0.21062 l -0.99988,0.0145 z m -0.002,-5.99488 v -3 h 1 v 3 z m 0,-6 v -3 h 1 v 3 z m 0,-6 v -3 h 1 v 3 z m 0,-6 v -3 h 1 v 3 z m 0,-6 v -3 h 1 v 3 z m 0,-6 v -3 h 1 v 3 z m 0,-6 v -3 h 1 v 3 z m 0,-6 v -3 h 1 v 3 z m 0,-6 v -3 h 1 v 3 z m 0,-6 v -3 h 1 v 3 z m 0,-6 v -3 h 1 v 3 z m 0.10028,-5.99067 c 0.11981,-1.04771 0.34418,-2.07243 0.67304,-3.07418 l 0.95007,0.31192 c -0.30762,0.93699 -0.51746,1.89561 -0.62958,2.87588 z m 1.94128,-5.92862 c 0.52131,-0.91243 1.12903,-1.763 1.82319,-2.55171 l 0.75073,0.66068 c -0.64942,0.7379 -1.21796,1.53361 -1.70563,2.38713 z m 4.13904,-4.69642 c 0.83313,-0.62697 1.72046,-1.16432 2.66205,-1.61206 l 0.42944,0.90307 c -0.88061,0.4188 -1.71069,0.92147 -2.49017,1.50803 z m 5.64655,-2.67314 c 1.0003,-0.24396 2.01483,-0.38684 3.04346,-0.42867 l 0.0406,0.99918 c -0.96221,0.0391 -1.91131,0.1728 -2.84716,0.40101 l -0.23694,-0.97152 z M 595,139.5 h 3 v 1 h -3 z"
             style="fill:#9f9f9f;fill-opacity:1;fill-rule:nonzero;stroke:none"
             id="path42" /><path
             d="m 115,220 h 380 c 0.98489,0 1.96036,0.0961 2.92633,0.28821 0.96597,0.19215 1.90393,0.47667 2.81387,0.85357 0.90992,0.37691 1.77436,0.83896 2.5933,1.38616 0.81894,0.54718 1.57663,1.16899 2.27307,1.86543 0.69644,0.69643 1.31823,1.45412 1.86545,2.27304 0.54715,0.81893 1.00918,1.68337 1.3861,2.59331 0.37693,0.90994 0.66144,1.84792 0.85361,2.81392 0.19217,0.96599 0.28824,1.94144 0.28827,2.92636 v 70 c -3e-5,0.98489 -0.0961,1.96033 -0.28827,2.9263 -0.19217,0.96597 -0.47668,1.90396 -0.85358,2.8139 -0.37692,0.90995 -0.83898,1.77439 -1.38617,2.59333 -0.54718,0.81891 -1.16897,1.5766 -1.86541,2.27304 -0.69644,0.69644 -1.45413,1.31823 -2.27307,1.86541 -0.81894,0.54722 -1.68338,1.00925 -2.5933,1.38617 -0.90994,0.37693 -1.8479,0.66144 -2.81387,0.85361 C 496.96036,319.9039 495.98489,319.99997 495,320 H 115 c -0.98492,-3e-5 -1.96036,-0.0961 -2.92636,-0.28824 -0.966,-0.19217 -1.90396,-0.47668 -2.81391,-0.85361 -0.90993,-0.37692 -1.77436,-0.83895 -2.5933,-1.38617 -0.81892,-0.54718 -1.5766,-1.16897 -2.27304,-1.86541 -0.69644,-0.69644 -1.31826,-1.45413 -1.86544,-2.27304 -0.54719,-0.81894 -1.00924,-1.68338 -1.38616,-2.59333 -0.37691,-0.90994 -0.66144,-1.84793 -0.85358,-2.8139 C 100.09606,306.96033 99.999992,305.98489 100,305 v -70 c -8e-6,-0.98492 0.0961,-1.96039 0.28821,-2.92638 0.19214,-0.96598 0.47667,-1.90396 0.85358,-2.8139 0.37692,-0.90994 0.83897,-1.77438 1.38616,-2.59331 0.54718,-0.81892 1.169,-1.57661 1.86544,-2.27304 0.69644,-0.69644 1.45412,-1.31825 2.27304,-1.86543 0.81894,-0.5472 1.68337,-1.00925 2.5933,-1.38616 0.90995,-0.3769 1.84791,-0.66142 2.8139,-0.85357 C 113.03963,220.09607 114.01508,220 115,220 Z"
             style="fill:#f5f5f5;fill-opacity:1;fill-rule:nonzero;stroke:none"
             id="path44" /><path
             d="m 121,219.5 h 3 v 1 h -3 z m 6,0 h 3 v 1 h -3 z m 6,0 h 3 v 1 h -3 z m 6,0 h 3 v 1 h -3 z m 6,0 h 3 v 1 h -3 z m 6,0 h 3 v 1 h -3 z m 6,0 h 3 v 1 h -3 z m 6,0 h 3 v 1 h -3 z m 6,0 h 3 v 1 h -3 z m 6,0 h 3 v 1 h -3 z m 6,0 h 3 v 1 h -3 z m 6,0 h 3 v 1 h -3 z m 6,0 h 3 v 1 h -3 z m 6,0 h 3 v 1 h -3 z m 6,0 h 3 v 1 h -3 z m 6,0 h 3 v 1 h -3 z m 6,0 h 3 v 1 h -3 z m 6,0 h 3 v 1 h -3 z m 6,0 h 3 v 1 h -3 z m 6,0 h 3 v 1 h -3 z m 6,0 h 3 v 1 h -3 z m 6,0 h 3 v 1 h -3 z m 6,0 h 3 v 1 h -3 z m 6,0 h 3 v 1 h -3 z m 6,0 h 3 v 1 h -3 z m 6,0 h 3 v 1 h -3 z m 6,0 h 3 v 1 h -3 z m 6,0 h 3 v 1 h -3 z m 6,0 h 3 v 1 h -3 z m 6,0 h 3 v 1 h -3 z m 6,0 h 3 v 1 h -3 z m 6,0 h 3 v 1 h -3 z m 6,0 h 3 v 1 h -3 z m 6,0 h 3 v 1 h -3 z m 6,0 h 3 v 1 h -3 z m 6,0 h 3 v 1 h -3 z m 6,0 h 3 v 1 h -3 z m 6,0 h 3 v 1 h -3 z m 6,0 h 3 v 1 h -3 z m 6,0 h 3 v 1 h -3 z m 6,0 h 3 v 1 h -3 z m 6,0 h 3 v 1 h -3 z m 6,0 h 3 v 1 h -3 z m 6,0 h 3 v 1 h -3 z m 6,0 h 3 v 1 h -3 z m 6,0 h 3 v 1 h -3 z m 6,0 h 3 v 1 h -3 z m 6,0 h 3 v 1 h -3 z m 6,0 h 3 v 1 h -3 z m 6,0 h 3 v 1 h -3 z m 6,0 h 3 v 1 h -3 z m 6,0 h 3 v 1 h -3 z m 6,0 h 3 v 1 h -3 z m 6,0 h 3 v 1 h -3 z m 6,0 h 3 v 1 h -3 z m 6,0 h 3 v 1 h -3 z m 6,0 h 3 v 1 h -3 z m 6,0 h 3 v 1 h -3 z m 6,0 h 3 v 1 h -3 z m 6,0 h 3 v 1 h -3 z m 6,0 h 3 v 1 h -3 z m 6,0 h 3 v 1 h -3 z m 6,0 h 2 c 0.32938,2e-5 0.65829,0.0105 0.98682,0.0315 l -0.0637,0.99798 C 495.61569,220.50981 495.30795,220.5 495,220.5 h -2 z m 6.04294,0.53654 c 1.02045,0.27569 2.00241,0.65186 2.94592,1.12851 l -0.45087,0.89258 c -0.88259,-0.44584 -1.80123,-0.79774 -2.75592,-1.05569 z m 5.57562,2.80889 c 0.82956,0.65645 1.58408,1.39023 2.26349,2.20134 l -0.7666,0.64212 c -0.63553,-0.75874 -1.34134,-1.44516 -2.11743,-2.05928 z m 4.0206,4.79094 c 0.4996,0.92526 0.90088,1.89149 1.20386,2.89871 l -0.95764,0.28806 c -0.28348,-0.94236 -0.65888,-1.84626 -1.12616,-2.71171 z m 1.79767,5.96599 c 0.0421,0.46495 0.0632,0.93083 0.0632,1.39764 v 1.5899 h -1 V 235 c -3e-5,-0.43677 -0.0197,-0.87257 -0.0591,-1.30743 l 0.99591,-0.0902 z m 0.0632,5.98754 v 3 h -1 v -3 z m 0,6 v 3 h -1 v -3 z m 0,6 v 3 h -1 v -3 z m 0,6 v 3 h -1 v -3 z m 0,6 v 3 h -1 v -3 z m 0,6 v 3 h -1 v -3 z m 0,6 v 3 h -1 v -3 z m 0,6 v 3 h -1 v -3 z m 0,6 v 3 h -1 v -3 z m 0,6 v 3 h -1 v -3 z m 0,6 v 3 h -1 v -3 z m -0.0108,5.98948 c -0.0384,1.0278 -0.17777,2.04162 -0.418,3.04144 l -0.97235,-0.23358 c 0.2247,-0.93534 0.35504,-1.88376 0.39102,-2.84528 l 0.99933,0.0374 z m -1.46952,6.03122 c -0.44449,0.94271 -0.97863,1.83151 -1.60238,2.66638 l -0.80115,-0.59851 c 0.58359,-0.78113 1.08328,-1.61258 1.49905,-2.49439 z m -3.73898,4.98935 c -0.78641,0.69705 -1.63516,1.30786 -2.54629,1.83245 l -0.49897,-0.86663 c 0.8523,-0.49076 1.64627,-1.06214 2.38193,-1.71418 z m -5.39429,3.10964 c -1.00174,0.3328 -2.0267,0.56089 -3.07492,0.68421 l -0.11688,-0.99317 c 0.98071,-0.11538 1.93958,-0.32873 2.87656,-0.64001 z M 493.82028,320.5 h -3 v -1 h 3 z m -6,0 h -3 v -1 h 3 z m -6,0 h -3 v -1 h 3 z m -6,0 h -3 v -1 h 3 z m -6,0 h -3 v -1 h 3 z m -6,0 h -3 v -1 h 3 z m -6,0 h -3 v -1 h 3 z m -6,0 h -3 v -1 h 3 z m -6,0 h -3 v -1 h 3 z m -6,0 h -3 v -1 h 3 z m -6,0 h -3 v -1 h 3 z m -6,0 h -3 v -1 h 3 z m -6,0 h -3 v -1 h 3 z m -6,0 h -3 v -1 h 3 z m -6,0 h -3 v -1 h 3 z m -6,0 h -3 v -1 h 3 z m -6.00003,0 h -2.99997 v -1 h 2.99997 z m -6,0 h -2.99997 v -1 h 2.99997 z m -5.99997,0 h -3 v -1 h 3 z m -6,0 h -3.00003 v -1 h 3.00003 z m -6,0 h -3.00003 v -1 h 3.00003 z m -6,0 h -3 v -1 h 3 z m -6.00003,0 h -3 v -1 h 3 z m -6,0 h -3 v -1 h 3 z m -6,0 h -3 v -1 h 3 z m -5.99997,0 h -3.00003 v -1 h 3.00003 z m -6.00003,0 h -3 v -1 h 3 z m -6,0 h -3 v -1 h 3 z m -6,0 h -3 v -1 h 3 z m -6,0 h -3 v -1 h 3 z m -6,0 h -3 v -1 h 3 z m -6,0 h -3 v -1 h 3 z m -6,0 h -2.99997 v -1 h 2.99997 z m -6,0 h -3 v -1 h 3 z m -6,0 h -3 v -1 h 3 z m -6,0 h -3 v -1 h 3 z m -5.99997,0 h -3.00003 v -1 h 3.00003 z m -6.00003,0 h -3 v -1 h 3 z m -6,0 h -3 v -1 h 3 z m -6,0 h -3 v -1 h 3 z m -5.99998,0 h -3 v -1 h 3 z m -6.00002,0 h -2.99998 v -1 h 2.99998 z m -5.99998,0 h -3.00002 v -1 h 3.00002 z m -5.99999,0 h -3.00003 v -1 h 3.00003 z m -6.00003,0 h -3 v -1 h 3 z m -5.99997,0 h -3.00003 v -1 h 3.00003 z m -6.00003,0 h -2.99997 v -1 h 2.99997 z m -6,0 h -3 v -1 h 3 z m -6,0 h -3 v -1 h 3 z m -6,0 h -3 v -1 h 3 z m -6,0 h -3 v -1 h 3 z m -6,0 h -3 v -1 h 3 z m -6,0 h -3 v -1 h 3 z m -6,0 h -3 v -1 h 3 z m -6,0 h -3 v -1 h 3 z m -6,0 h -3 v -1 h 3 z m -6,0 h -3 v -1 h 3 z m -6,0 h -3 v -1 h 3 z m -6,0 h -3 v -1 h 3 z m -6,0 h -3 v -1 h 3 z m -6,0 h -3 v -1 h 3 z m -6,0 h -3 v -1 h 3 z m -6,0 h -3 v -1 h 3 z m -6,0 h -0.82019 c -0.72923,0 -1.45471,-0.0512 -2.17645,-0.15356 l 0.14042,-0.99012 C 113.63924,319.45212 114.31791,319.5 115,319.5 h 0.82019 v 1 z m -6.07521,-0.91797 c -0.97845,-0.35263 -1.91206,-0.79925 -2.8008,-1.33993 l 0.51973,-0.85431 c 0.83129,0.5057 1.70466,0.92352 2.62012,1.25345 z m -5.3063,-3.23706 c -0.7735,-0.72 -1.46615,-1.51096 -2.07797,-2.37286 l 0.81544,-0.57886 c 0.57238,0.80637 1.22034,1.54629 1.94389,2.21979 z m -3.61109,-5.06863 c -0.43165,-0.97467 -0.75925,-1.98307 -0.982795,-3.02521 l 0.977755,-0.20978 c 0.20914,0.97495 0.51561,1.91831 0.91939,2.83008 z M 99.5017,305.22525 C 99.500549,305.15015 99.5,305.07504 99.5,305 v -2.76965 h 1 V 305 c 0,0.0703 5.1e-4,0.1405 0.002,0.21072 l -0.99989,0.0145 z m -0.0016,-5.9949 v -3 h 1 v 3 z m 0,-6 v -3 h 1 v 3 z m 0,-6 v -3 h 1 v 3 z m 0,-6 v -3 h 1 v 3 z m 0,-6 v -3 h 1 v 3 z m 0,-6 v -3 h 1 v 3 z m 0,-6 v -3 h 1 v 3 z m 0,-6 v -3 h 1 v 3 z m 0,-6 v -3 h 1 v 3 z m 0,-6 v -3 h 1 v 3 z m 0,-6 v -3 h 1 v 3 z m 0.100273,-5.99065 c 0.119759,-1.04764 0.344078,-2.07237 0.672957,-3.07419 l 0.95012,0.31189 c -0.30766,0.93717 -0.51751,1.8958 -0.62955,2.87589 z m 1.941257,-5.9286 c 0.52129,-0.91246 1.12904,-1.76305 1.82323,-2.55178 l 0.75066,0.66071 c -0.64942,0.73784 -1.21796,1.53354 -1.70559,2.3871 z m 4.13904,-4.69651 c 0.83314,-0.62687 1.72047,-1.16421 2.66198,-1.61204 l 0.42954,0.90304 c -0.88076,0.41892 -1.71086,0.9216 -2.49028,1.50808 z m 5.64655,-2.67315 c 1.00016,-0.24395 2.01463,-0.38683 3.04342,-0.42867 l 0.0406,0.99918 c -0.96242,0.0391 -1.91145,0.17282 -2.84711,0.40101 l -0.23694,-0.97152 z M 115,219.5 h 3 v 1 h -3 z"
             style="fill:#9f9f9f;fill-opacity:1;fill-rule:nonzero;stroke:none"
             id="path46" /><path
             d="m 320,100 h 20 23.63"
             style="fill:none;stroke:#000000;stroke-width:1;stroke-linecap:butt;stroke-linejoin:miter;stroke-miterlimit:10;stroke-dasharray:none;stroke-opacity:1"
             id="path48" /><path
             d="m 368.88,100 -7,3.5 1.75,-3.5 -1.75,-3.5 z"
             style="fill:#000000;fill-opacity:1;fill-rule:nonzero;stroke:none"
             id="path50" /><path
             d="m 368.88,100 -7,3.5 1.75,-3.5 -1.75,-3.5 z"
             style="fill:none;stroke:#000000;stroke-width:1;stroke-linecap:butt;stroke-linejoin:miter;stroke-miterlimit:10;stroke-dasharray:none;stroke-opacity:1"
             id="path52" /></g><g
           id="g54"
           transform="scale(2.9985754)"><path
             d="m 326,95 h 23 v 13 h -23 z"
             style="fill:#ffffff;fill-opacity:1;fill-rule:nonzero;stroke:none"
             id="path56" /><text
             transform="translate(325.57813,105)"
             style="font-variant:normal;font-weight:normal;font-size:11px;font-family:Arial;-inkscape-font-specification:ArialMT;writing-mode:lr-tb;fill:#000000;fill-opacity:1;fill-rule:nonzero;stroke:none"
             id="text60"><tspan
               x="0 6.1176758 9.1738281 12.22998 18.347656"
               y="0"
               sodipodi:role="line"
               id="tspan58">https</tspan></text><path
             d="m 325,94 h 25 v 15 h -25 z"
             style="fill:#f5f5f5;fill-opacity:1;fill-rule:nonzero;stroke:none"
             id="path62" /><path
             d="m 325.5,94.5 h 24 v 14 h -24 z"
             style="fill:none;stroke:#f5f5f5;stroke-width:1;stroke-linecap:butt;stroke-linejoin:miter;stroke-miterlimit:10;stroke-dasharray:none;stroke-opacity:1"
             id="path64" /><text
             transform="translate(325.57813,105)"
             style="font-variant:normal;font-weight:normal;font-size:11px;font-family:Arial;-inkscape-font-specification:ArialMT;writing-mode:lr-tb;fill:#000000;fill-opacity:1;fill-rule:nonzero;stroke:none"
             id="text68"><tspan
               x="0 6.1176758 9.1738281 12.22998 18.347656"
               y="0"
               sodipodi:role="line"
               id="tspan66">https</tspan></text></g><g
           id="g70"
           transform="matrix(2.9985754,0,0,2.9985754,1.4992877,1.4992877)"><path
             d="m 320,120 h 20 23.63"
             style="fill:none;stroke:#000000;stroke-width:1;stroke-linecap:butt;stroke-linejoin:miter;stroke-miterlimit:10;stroke-dasharray:none;stroke-opacity:1"
             id="path72" /><path
             d="m 368.88,120 -7,3.5 1.75,-3.5 -1.75,-3.5 z"
             style="fill:#000000;fill-opacity:1;fill-rule:nonzero;stroke:none"
             id="path74" /><path
             d="m 368.88,120 -7,3.5 1.75,-3.5 -1.75,-3.5 z"
             style="fill:none;stroke:#000000;stroke-width:1;stroke-linecap:butt;stroke-linejoin:miter;stroke-miterlimit:10;stroke-dasharray:none;stroke-opacity:1"
             id="path76" /></g><g
           id="g78"
           transform="scale(2.9985754)"><path
             d="m 326,115 h 19 v 13 h -19 z"
             style="fill:#ffffff;fill-opacity:1;fill-rule:nonzero;stroke:none"
             id="path80" /><text
             transform="translate(326.03125,125)"
             style="font-variant:normal;font-weight:normal;font-size:11px;font-family:Arial;-inkscape-font-specification:ArialMT;writing-mode:lr-tb;fill:#000000;fill-opacity:1;fill-rule:nonzero;stroke:none"
             id="text84"><tspan
               x="0 7.9438477 13.443848"
               y="0"
               sodipodi:role="line"
               id="tspan82">wss</tspan></text><path
             d="m 325,114 h 21 v 15 h -21 z"
             style="fill:#f5f5f5;fill-opacity:1;fill-rule:nonzero;stroke:none"
             id="path86" /><path
             d="m 325.5,114.5 h 20 v 14 h -20 z"
             style="fill:none;stroke:#f5f5f5;stroke-width:1;stroke-linecap:butt;stroke-linejoin:miter;stroke-miterlimit:10;stroke-dasharray:none;stroke-opacity:1"
             id="path88" /><text
             transform="translate(326.03125,125)"
             style="font-variant:normal;font-weight:normal;font-size:11px;font-family:Arial;-inkscape-font-specification:ArialMT;writing-mode:lr-tb;fill:#000000;fill-opacity:1;fill-rule:nonzero;stroke:none"
             id="text92"><tspan
               x="0 7.9438477 13.443848"
               y="0"
               sodipodi:role="line"
               id="tspan90">wss</tspan></text></g><g
           id="g94"
           transform="matrix(2.9985754,0,0,2.9985754,1.4992877,1.4992877)"><path
             d="M 260,80 V 50 h 400 v 103.63"
             style="fill:none;stroke:#000000;stroke-width:1;stroke-linecap:butt;stroke-linejoin:miter;stroke-miterlimit:10;stroke-dasharray:none;stroke-opacity:1"
             id="path96" /><path
             d="m 660,158.88 -3.5,-7 3.5,1.75 3.5,-1.75 z"
             style="fill:#000000;fill-opacity:1;fill-rule:nonzero;stroke:none"
             id="path98" /><path
             d="m 660,158.88 -3.5,-7 3.5,1.75 3.5,-1.75 z"
             style="fill:none;stroke:#000000;stroke-width:1;stroke-linecap:butt;stroke-linejoin:miter;stroke-miterlimit:10;stroke-dasharray:none;stroke-opacity:1"
             id="path100" /></g><g
           id="g102"
           transform="scale(2.9985754)"><path
             d="m 272,44 h 25 v 15 h -25 z"
             style="fill:#ffffff;fill-opacity:1;fill-rule:nonzero;stroke:none"
             id="path104" /><path
             d="m 272.5,44.5 h 24 v 14 h -24 z"
             style="fill:none;stroke:#ffffff;stroke-width:1;stroke-linecap:butt;stroke-linejoin:miter;stroke-miterlimit:10;stroke-dasharray:none;stroke-opacity:1"
             id="path106" /><text
             transform="translate(272.57813,55)"
             style="font-variant:normal;font-weight:normal;font-size:11px;font-family:Arial;-inkscape-font-specification:ArialMT;writing-mode:lr-tb;fill:#000000;fill-opacity:1;fill-rule:nonzero;stroke:none"
             id="text110"><tspan
               x="0 6.1176758 9.1738281 12.22998 18.347656"
               y="0"
               sodipodi:role="line"
               id="tspan108">https</tspan></text></g><g
           id="g112"
           transform="matrix(2.9985754,0,0,2.9985754,1.4992877,1.4992877)"><path
             d="m 260,140 v 30 h 160 l 0.04,63.63"
             style="fill:none;stroke:#000000;stroke-width:1;stroke-linecap:butt;stroke-linejoin:miter;stroke-miterlimit:10;stroke-dasharray:none;stroke-opacity:1"
             id="path114" /><path
             d="m 420.04001,238.88 -3.5,-7 3.5,1.75 3.5,-1.75 z"
             style="fill:#000000;fill-opacity:1;fill-rule:nonzero;stroke:none"
             id="path116" /><path
             d="m 420.04001,238.88 -3.5,-7 3.5,1.75 3.5,-1.75 z"
             style="fill:none;stroke:#000000;stroke-width:1;stroke-linecap:butt;stroke-linejoin:miter;stroke-miterlimit:10;stroke-dasharray:none;stroke-opacity:1"
             id="path118" /></g><g
           id="g120"
           transform="scale(2.9985754)"><path
             d="m 275,164 h 25 v 15 h -25 z"
             style="fill:#ffffff;fill-opacity:1;fill-rule:nonzero;stroke:none"
             id="path122" /><path
             d="m 275.5,164.5 h 24 v 14 h -24 z"
             style="fill:none;stroke:#ffffff;stroke-width:1;stroke-linecap:butt;stroke-linejoin:miter;stroke-miterlimit:10;stroke-dasharray:none;stroke-opacity:1"
             id="path124" /><text
             transform="translate(275.57813,175)"
             style="font-variant:normal;font-weight:normal;font-size:11px;font-family:Arial;-inkscape-font-specification:ArialMT;writing-mode:lr-tb;fill:#000000;fill-opacity:1;fill-rule:nonzero;stroke:none"
             id="text128"><tspan
               x="0 6.1176758 9.1738281 12.22998 18.347656"
               y="0"
               sodipodi:role="line"
               id="tspan126">https</tspan></text></g><g
           id="g130"
           transform="matrix(2.9985754,0,0,2.9985754,1.4992877,1.4992877)"><path
             d="m 200,110 h -20 10 -13.63"
             style="fill:none;stroke:#000000;stroke-width:1;stroke-linecap:butt;stroke-linejoin:miter;stroke-miterlimit:10;stroke-dasharray:none;stroke-opacity:1"
             id="path132" /><path
             d="m 171.12,110 7,-3.5 -1.75,3.5 1.75,3.5 z"
             style="fill:#000000;fill-opacity:1;fill-rule:nonzero;stroke:none"
             id="path134" /><path
             d="m 171.12,110 7,-3.5 -1.75,3.5 1.75,3.5 z"
             style="fill:none;stroke:#000000;stroke-width:1;stroke-linecap:butt;stroke-linejoin:miter;stroke-miterlimit:10;stroke-dasharray:none;stroke-opacity:1"
             id="path136" /><path
             d="m 200,80 h 120 v 60 H 200 Z"
             style="fill:#dae8fc;fill-opacity:1;fill-rule:nonzero;stroke:none"
             id="path138" /><path
             d="m 200,80 h 120 v 60 H 200 Z"
             style="fill:none;stroke:#6c8ebf;stroke-width:1;stroke-linecap:butt;stroke-linejoin:miter;stroke-miterlimit:10;stroke-dasharray:none;stroke-opacity:1"
             id="path140" /></g><g
           id="g142"
           transform="scale(2.9985754)"><text
             transform="translate(247.98438,114)"
             style="font-variant:normal;font-weight:normal;font-size:12px;font-family:Arial;-inkscape-font-specification:ArialMT;writing-mode:lr-tb;fill:#000000;fill-opacity:1;fill-rule:nonzero;stroke:none"
             id="text146"><tspan
               x="0 8.0039062 16.007812"
               y="0"
               sodipodi:role="line"
               id="tspan144">BPE</tspan></text></g><g
           id="g148"
           transform="matrix(2.9985754,0,0,2.9985754,1.4992877,1.4992877)"><path
             d="m 370,80 h 120 v 60 H 370 Z"
             style="fill:#d5e8d4;fill-opacity:1;fill-rule:nonzero;stroke:none"
             id="path150" /><path
             d="m 370,80 h 120 v 60 H 370 Z"
             style="fill:none;stroke:#82b366;stroke-width:1;stroke-linecap:butt;stroke-linejoin:miter;stroke-miterlimit:10;stroke-dasharray:none;stroke-opacity:1"
             id="path152" /></g><g
           id="g154"
           transform="scale(2.9985754)"><text
             transform="translate(416,114)"
             style="font-variant:normal;font-weight:normal;font-size:12px;font-family:Arial;-inkscape-font-specification:ArialMT;writing-mode:lr-tb;fill:#000000;fill-opacity:1;fill-rule:nonzero;stroke:none"
             id="text158"><tspan
               x="0 7.3300781 15.996094 19.330078"
               y="0"
               sodipodi:role="line"
               id="tspan156">FHIR</tspan></text></g><g
           id="g160"
           transform="matrix(2.9985754,0,0,2.9985754,1.4992877,1.4992877)"><path
             d="M 770,200 H 750 726.37"
             style="fill:none;stroke:#000000;stroke-width:1;stroke-linecap:butt;stroke-linejoin:miter;stroke-miterlimit:10;stroke-dasharray:none;stroke-opacity:1"
             id="path162" /><path
             d="m 721.12,200 7,-3.5 -1.75,3.5 1.75,3.5 z"
             style="fill:#000000;fill-opacity:1;fill-rule:nonzero;stroke:none"
             id="path164" /><path
             d="m 721.12,200 7,-3.5 -1.75,3.5 1.75,3.5 z"
             style="fill:none;stroke:#000000;stroke-width:1;stroke-linecap:butt;stroke-linejoin:miter;stroke-miterlimit:10;stroke-dasharray:none;stroke-opacity:1"
             id="path166" /></g><g
           id="g168"
           transform="scale(2.9985754)"><path
             d="m 743,194 h 21 v 15 h -21 z"
             style="fill:#f5f5f5;fill-opacity:1;fill-rule:nonzero;stroke:none"
             id="path170" /><path
             d="m 743.5,194.5 h 20 v 14 h -20 z"
             style="fill:none;stroke:#f5f5f5;stroke-width:1;stroke-linecap:butt;stroke-linejoin:miter;stroke-miterlimit:10;stroke-dasharray:none;stroke-opacity:1"
             id="path172" /><text
             transform="translate(744.03125,205)"
             style="font-variant:normal;font-weight:normal;font-size:11px;font-family:Arial;-inkscape-font-specification:ArialMT;writing-mode:lr-tb;fill:#000000;fill-opacity:1;fill-rule:nonzero;stroke:none"
             id="text176"><tspan
               x="0 7.9438477 13.443848"
               y="0"
               sodipodi:role="line"
               id="tspan174">wss</tspan></text></g><g
           id="g178"
           transform="matrix(2.9985754,0,0,2.9985754,1.4992877,1.4992877)"><path
             d="M 770,180 H 750 726.37"
             style="fill:none;stroke:#000000;stroke-width:1;stroke-linecap:butt;stroke-linejoin:miter;stroke-miterlimit:10;stroke-dasharray:none;stroke-opacity:1"
             id="path180" /><path
             d="m 721.12,180 7,-3.5 -1.75,3.5 1.75,3.5 z"
             style="fill:#000000;fill-opacity:1;fill-rule:nonzero;stroke:none"
             id="path182" /><path
             d="m 721.12,180 7,-3.5 -1.75,3.5 1.75,3.5 z"
             style="fill:none;stroke:#000000;stroke-width:1;stroke-linecap:butt;stroke-linejoin:miter;stroke-miterlimit:10;stroke-dasharray:none;stroke-opacity:1"
             id="path184" /></g><g
           id="g186"
           transform="scale(2.9985754)"><path
             d="m 744,174 h 25 v 15 h -25 z"
             style="fill:#f5f5f5;fill-opacity:1;fill-rule:nonzero;stroke:none"
             id="path188" /><path
             d="m 744.5,174.5 h 24 v 14 h -24 z"
             style="fill:none;stroke:#f5f5f5;stroke-width:1;stroke-linecap:butt;stroke-linejoin:miter;stroke-miterlimit:10;stroke-dasharray:none;stroke-opacity:1"
             id="path190" /><text
             transform="translate(744.57813,185)"
             style="font-variant:normal;font-weight:normal;font-size:11px;font-family:Arial;-inkscape-font-specification:ArialMT;writing-mode:lr-tb;fill:#000000;fill-opacity:1;fill-rule:nonzero;stroke:none"
             id="text194"><tspan
               x="0 6.1176758 9.1738281 12.22998 18.347656"
               y="0"
               sodipodi:role="line"
               id="tspan192">https</tspan></text></g><g
           id="g196"
           transform="matrix(2.9985754,0,0,2.9985754,1.4992877,1.4992877)"><path
             d="m 820,220 v 50 H 496.37"
             style="fill:none;stroke:#000000;stroke-width:1;stroke-linecap:butt;stroke-linejoin:miter;stroke-miterlimit:10;stroke-dasharray:none;stroke-opacity:1"
             id="path198" /><path
             d="m 491.12,270 7,-3.5 -1.75,3.5 1.75,3.5 z"
             style="fill:#000000;fill-opacity:1;fill-rule:nonzero;stroke:none"
             id="path200" /><path
             d="m 491.12,270 7,-3.5 -1.75,3.5 1.75,3.5 z"
             style="fill:none;stroke:#000000;stroke-width:1;stroke-linecap:butt;stroke-linejoin:miter;stroke-miterlimit:10;stroke-dasharray:none;stroke-opacity:1"
             id="path202" /></g><g
           id="g204"
           transform="scale(2.9985754)"><path
             d="m 789,264 h 25 v 15 h -25 z"
             style="fill:#ffffff;fill-opacity:1;fill-rule:nonzero;stroke:none"
             id="path206" /><path
             d="m 789.5,264.5 h 24 v 14 h -24 z"
             style="fill:none;stroke:#ffffff;stroke-width:1;stroke-linecap:butt;stroke-linejoin:miter;stroke-miterlimit:10;stroke-dasharray:none;stroke-opacity:1"
             id="path208" /><text
             transform="translate(789.57813,275)"
             style="font-variant:normal;font-weight:normal;font-size:11px;font-family:Arial;-inkscape-font-specification:ArialMT;writing-mode:lr-tb;fill:#000000;fill-opacity:1;fill-rule:nonzero;stroke:none"
             id="text212"><tspan
               x="0 6.1176758 9.1738281 12.22998 18.347656"
               y="0"
               sodipodi:role="line"
               id="tspan210">https</tspan></text></g><g
           id="g214"
           transform="matrix(2.9985754,0,0,2.9985754,1.4992877,1.4992877)"><path
             d="M 820,160 V 110 H 496.37"
             style="fill:none;stroke:#000000;stroke-width:1;stroke-linecap:butt;stroke-linejoin:miter;stroke-miterlimit:10;stroke-dasharray:none;stroke-opacity:1"
             id="path216" /><path
             d="m 491.12,110 7,-3.5 -1.75,3.5 1.75,3.5 z"
             style="fill:#000000;fill-opacity:1;fill-rule:nonzero;stroke:none"
             id="path218" /><path
             d="m 491.12,110 7,-3.5 -1.75,3.5 1.75,3.5 z"
             style="fill:none;stroke:#000000;stroke-width:1;stroke-linecap:butt;stroke-linejoin:miter;stroke-miterlimit:10;stroke-dasharray:none;stroke-opacity:1"
             id="path220" /></g><g
           id="g222"
           transform="scale(2.9985754)"><path
             d="m 789,104 h 25 v 15 h -25 z"
             style="fill:#ffffff;fill-opacity:1;fill-rule:nonzero;stroke:none"
             id="path224" /><path
             d="m 789.5,104.5 h 24 v 14 h -24 z"
             style="fill:none;stroke:#ffffff;stroke-width:1;stroke-linecap:butt;stroke-linejoin:miter;stroke-miterlimit:10;stroke-dasharray:none;stroke-opacity:1"
             id="path226" /><text
             transform="translate(789.57813,115)"
             style="font-variant:normal;font-weight:normal;font-size:11px;font-family:Arial;-inkscape-font-specification:ArialMT;writing-mode:lr-tb;fill:#000000;fill-opacity:1;fill-rule:nonzero;stroke:none"
             id="text230"><tspan
               x="0 6.1176758 9.1738281 12.22998 18.347656"
               y="0"
               sodipodi:role="line"
               id="tspan228">https</tspan></text></g><g
           id="g232"
           transform="matrix(2.9985754,0,0,2.9985754,1.4992877,1.4992877)"><path
             d="m 890,190 h 20 -10 13.63"
             style="fill:none;stroke:#000000;stroke-width:1;stroke-linecap:butt;stroke-linejoin:miter;stroke-miterlimit:10;stroke-dasharray:none;stroke-opacity:1"
             id="path234" /><path
             d="m 918.88,190 -7,3.5 1.75,-3.5 -1.75,-3.5 z"
             style="fill:#000000;fill-opacity:1;fill-rule:nonzero;stroke:none"
             id="path236" /><path
             d="m 918.88,190 -7,3.5 1.75,-3.5 -1.75,-3.5 z"
             style="fill:none;stroke:#000000;stroke-width:1;stroke-linecap:butt;stroke-linejoin:miter;stroke-miterlimit:10;stroke-dasharray:none;stroke-opacity:1"
             id="path238" /><path
             d="m 770,160 h 120 v 60 H 770 Z"
             style="fill:#dae8fc;fill-opacity:1;fill-rule:nonzero;stroke:none"
             id="path240" /><path
             d="m 770,160 h 120 v 60 H 770 Z"
             style="fill:none;stroke:#6c8ebf;stroke-width:1;stroke-linecap:butt;stroke-linejoin:miter;stroke-miterlimit:10;stroke-dasharray:none;stroke-opacity:1"
             id="path242" /></g><g
           id="g244"
           transform="scale(2.9985754)"><text
             transform="translate(817.98438,194)"
             style="font-variant:normal;font-weight:normal;font-size:12px;font-family:Arial;-inkscape-font-specification:ArialMT;writing-mode:lr-tb;fill:#000000;fill-opacity:1;fill-rule:nonzero;stroke:none"
             id="text248"><tspan
               x="0 8.0039062 16.007812"
               y="0"
               sodipodi:role="line"
               id="tspan246">BPE</tspan></text></g><g
           id="g250"
           transform="matrix(2.9985754,0,0,2.9985754,1.4992877,1.4992877)"><path
             d="m 593.63,190.5 h -3 v -1 h 3 m -6,1 h -3 v -1 h 3 m -6,1 h -3 v -1 h 3 m -6,1 h -3 v -1 h 3 m -6,1 h -3 v -1 h 3 m -6,1 h -3 v -1 h 3 m -6,1 h -3 v -1 h 3 m -6,1 h -3 v -1 h 3 m -6,1 h -3 v -1 h 3 m -6,1 h -3 v -1 h 3 m -6,1 h -3 v -1 h 3 m -6,1 h -3 v -1 h 3 m -6,1 h -3 v -1 h 3 m -6,1 h -3 v -1 h 3 m -6,1 h -3 v -1 h 3 m -6,1 h -3 v -1 h 3 m -6,1 h -3 v -1 h 3 m -6,1 h -3 v -1 h 3 m -6,1 h -3 v -1 h 3"
             style="fill:#000000;fill-opacity:1;fill-rule:nonzero;stroke:none"
             id="path252" /><path
             d="m 598.88,190 -7,3.5 1.75,-3.5 -1.75,-3.5 z"
             style="fill:#000000;fill-opacity:1;fill-rule:nonzero;stroke:none"
             id="path254" /><path
             d="m 598.88,190 -7,3.5 1.75,-3.5 -1.75,-3.5 z"
             style="fill:none;stroke:#000000;stroke-width:1;stroke-linecap:butt;stroke-linejoin:miter;stroke-miterlimit:10;stroke-dasharray:none;stroke-opacity:1"
             id="path256" /></g><g
           id="g258"
           transform="scale(2.9985754)"><path
             d="m 497,184 h 67 v 15 h -67 z"
             style="fill:#ffffff;fill-opacity:1;fill-rule:nonzero;stroke:none"
             id="path260" /><path
             d="m 497.5,184.5 h 66 v 14 h -66 z"
             style="fill:none;stroke:#ffffff;stroke-width:1;stroke-linecap:butt;stroke-linejoin:miter;stroke-miterlimit:10;stroke-dasharray:none;stroke-opacity:1"
             id="path262" /><text
             transform="translate(498.10938,195)"
             style="font-variant:normal;font-weight:normal;font-size:11px;font-family:Arial;-inkscape-font-specification:ArialMT;writing-mode:lr-tb;fill:#000000;fill-opacity:1;fill-rule:nonzero;stroke:none"
             id="text266"><tspan
               x="0 6.1176758 9.1738281 12.22998 18.347656 23.847656 26.903809 30.566895 38.510742 45.847656 53.18457 61.128418"
               y="0"
               sodipodi:role="line"
               id="tspan264">https (HEAD)</tspan></text></g><g
           id="g268"
           transform="matrix(2.9985754,0,0,2.9985754,1.4992877,1.4992877)"><path
             d="m 600,160 h 120 v 60 H 600 Z"
             style="fill:#d5e8d4;fill-opacity:1;fill-rule:nonzero;stroke:none"
             id="path270" /><path
             d="m 600,160 h 120 v 60 H 600 Z"
             style="fill:none;stroke:#82b366;stroke-width:1;stroke-linecap:butt;stroke-linejoin:miter;stroke-miterlimit:10;stroke-dasharray:none;stroke-opacity:1"
             id="path272" /></g><g
           id="g274"
           transform="scale(2.9985754)"><text
             transform="translate(646,194)"
             style="font-variant:normal;font-weight:normal;font-size:12px;font-family:Arial;-inkscape-font-specification:ArialMT;writing-mode:lr-tb;fill:#000000;fill-opacity:1;fill-rule:nonzero;stroke:none"
             id="text278"><tspan
               x="0 7.3300781 15.996094 19.330078"
               y="0"
               sodipodi:role="line"
               id="tspan276">FHIR</tspan></text></g><g
           id="g280"
           transform="matrix(2.9985754,0,0,2.9985754,1.4992877,1.4992877)"><path
             d="m 320,260 h 20 23.63"
             style="fill:none;stroke:#000000;stroke-width:1;stroke-linecap:butt;stroke-linejoin:miter;stroke-miterlimit:10;stroke-dasharray:none;stroke-opacity:1"
             id="path282" /><path
             d="m 368.88,260 -7,3.5 1.75,-3.5 -1.75,-3.5 z"
             style="fill:#000000;fill-opacity:1;fill-rule:nonzero;stroke:none"
             id="path284" /><path
             d="m 368.88,260 -7,3.5 1.75,-3.5 -1.75,-3.5 z"
             style="fill:none;stroke:#000000;stroke-width:1;stroke-linecap:butt;stroke-linejoin:miter;stroke-miterlimit:10;stroke-dasharray:none;stroke-opacity:1"
             id="path286" /></g><g
           id="g288"
           transform="scale(2.9985754)"><path
             d="m 326,255 h 23 v 13 h -23 z"
             style="fill:#ffffff;fill-opacity:1;fill-rule:nonzero;stroke:none"
             id="path290" /><text
             transform="translate(325.57813,265)"
             style="font-variant:normal;font-weight:normal;font-size:11px;font-family:Arial;-inkscape-font-specification:ArialMT;writing-mode:lr-tb;fill:#000000;fill-opacity:1;fill-rule:nonzero;stroke:none"
             id="text294"><tspan
               x="0 6.1176758 9.1738281 12.22998 18.347656"
               y="0"
               sodipodi:role="line"
               id="tspan292">https</tspan></text><path
             d="m 325,254 h 25 v 15 h -25 z"
             style="fill:#f5f5f5;fill-opacity:1;fill-rule:nonzero;stroke:none"
             id="path296" /><path
             d="m 325.5,254.5 h 24 v 14 h -24 z"
             style="fill:none;stroke:#f5f5f5;stroke-width:1;stroke-linecap:butt;stroke-linejoin:miter;stroke-miterlimit:10;stroke-dasharray:none;stroke-opacity:1"
             id="path298" /><text
             transform="translate(325.57813,265)"
             style="font-variant:normal;font-weight:normal;font-size:11px;font-family:Arial;-inkscape-font-specification:ArialMT;writing-mode:lr-tb;fill:#000000;fill-opacity:1;fill-rule:nonzero;stroke:none"
             id="text302"><tspan
               x="0 6.1176758 9.1738281 12.22998 18.347656"
               y="0"
               sodipodi:role="line"
               id="tspan300">https</tspan></text></g><g
           id="g304"
           transform="matrix(2.9985754,0,0,2.9985754,1.4992877,1.4992877)"><path
             d="m 320,280 h 20 23.63"
             style="fill:none;stroke:#000000;stroke-width:1;stroke-linecap:butt;stroke-linejoin:miter;stroke-miterlimit:10;stroke-dasharray:none;stroke-opacity:1"
             id="path306" /><path
             d="m 368.88,280 -7,3.5 1.75,-3.5 -1.75,-3.5 z"
             style="fill:#000000;fill-opacity:1;fill-rule:nonzero;stroke:none"
             id="path308" /><path
             d="m 368.88,280 -7,3.5 1.75,-3.5 -1.75,-3.5 z"
             style="fill:none;stroke:#000000;stroke-width:1;stroke-linecap:butt;stroke-linejoin:miter;stroke-miterlimit:10;stroke-dasharray:none;stroke-opacity:1"
             id="path310" /></g><g
           id="g312"
           transform="scale(2.9985754)"><path
             d="m 325,274 h 21 v 15 h -21 z"
             style="fill:#f5f5f5;fill-opacity:1;fill-rule:nonzero;stroke:none"
             id="path314" /><path
             d="m 325.5,274.5 h 20 v 14 h -20 z"
             style="fill:none;stroke:#f5f5f5;stroke-width:1;stroke-linecap:butt;stroke-linejoin:miter;stroke-miterlimit:10;stroke-dasharray:none;stroke-opacity:1"
             id="path316" /><text
             transform="translate(326.03125,285)"
             style="font-variant:normal;font-weight:normal;font-size:11px;font-family:Arial;-inkscape-font-specification:ArialMT;writing-mode:lr-tb;fill:#000000;fill-opacity:1;fill-rule:nonzero;stroke:none"
             id="text320"><tspan
               x="0 7.9438477 13.443848"
               y="0"
               sodipodi:role="line"
               id="tspan318">wss</tspan></text></g><g
           id="g322"
           transform="matrix(2.9985754,0,0,2.9985754,1.4992877,1.4992877)"><path
             d="m 260,240 v -30 h 179.70001 l 0.02,-64.71001"
             style="fill:none;stroke:#000000;stroke-width:1;stroke-linecap:butt;stroke-linejoin:miter;stroke-miterlimit:10;stroke-dasharray:none;stroke-opacity:1"
             id="path324" /><path
             d="m 439.72,140.03999 3.5,7 -3.5,-1.75 -3.5,1.75 z"
             style="fill:#000000;fill-opacity:1;fill-rule:nonzero;stroke:none"
             id="path326" /><path
             d="m 439.72,140.03999 3.5,7 -3.5,-1.75 -3.5,1.75 z"
             style="fill:none;stroke:#000000;stroke-width:1;stroke-linecap:butt;stroke-linejoin:miter;stroke-miterlimit:10;stroke-dasharray:none;stroke-opacity:1"
             id="path328" /></g><g
           id="g330"
           transform="scale(2.9985754)"><path
             d="m 274,204 h 25 v 15 h -25 z"
             style="fill:#ffffff;fill-opacity:1;fill-rule:nonzero;stroke:none"
             id="path332" /><path
             d="m 274.5,204.5 h 24 v 14 h -24 z"
             style="fill:none;stroke:#ffffff;stroke-width:1;stroke-linecap:butt;stroke-linejoin:miter;stroke-miterlimit:10;stroke-dasharray:none;stroke-opacity:1"
             id="path334" /><text
             transform="translate(274.57813,215)"
             style="font-variant:normal;font-weight:normal;font-size:11px;font-family:Arial;-inkscape-font-specification:ArialMT;writing-mode:lr-tb;fill:#000000;fill-opacity:1;fill-rule:nonzero;stroke:none"
             id="text338"><tspan
               x="0 6.1176758 9.1738281 12.22998 18.347656"
               y="0"
               sodipodi:role="line"
               id="tspan336">https</tspan></text></g><g
           id="g340"
           transform="matrix(2.9985754,0,0,2.9985754,1.4992877,1.4992877)"><path
             d="m 260,300 v 30 H 660 V 226.37"
             style="fill:none;stroke:#000000;stroke-width:1;stroke-linecap:butt;stroke-linejoin:miter;stroke-miterlimit:10;stroke-dasharray:none;stroke-opacity:1"
             id="path342" /><path
             d="m 660,221.12 3.5,7 -3.5,-1.75 -3.5,1.75 z"
             style="fill:#000000;fill-opacity:1;fill-rule:nonzero;stroke:none"
             id="path344" /><path
             d="m 660,221.12 3.5,7 -3.5,-1.75 -3.5,1.75 z"
             style="fill:none;stroke:#000000;stroke-width:1;stroke-linecap:butt;stroke-linejoin:miter;stroke-miterlimit:10;stroke-dasharray:none;stroke-opacity:1"
             id="path346" /></g><g
           id="g348"
           transform="scale(2.9985754)"><path
             d="m 274,325 h 25 v 15 h -25 z"
             style="fill:#ffffff;fill-opacity:1;fill-rule:nonzero;stroke:none"
             id="path350" /><path
             d="m 274.5,325.5 h 24 v 14 h -24 z"
             style="fill:none;stroke:#ffffff;stroke-width:1;stroke-linecap:butt;stroke-linejoin:miter;stroke-miterlimit:10;stroke-dasharray:none;stroke-opacity:1"
             id="path352" /><text
             transform="translate(274.57813,336)"
             style="font-variant:normal;font-weight:normal;font-size:11px;font-family:Arial;-inkscape-font-specification:ArialMT;writing-mode:lr-tb;fill:#000000;fill-opacity:1;fill-rule:nonzero;stroke:none"
             id="text356"><tspan
               x="0 6.1176758 9.1738281 12.22998 18.347656"
               y="0"
               sodipodi:role="line"
               id="tspan354">https</tspan></text></g><g
           id="g358"
           transform="matrix(2.9985754,0,0,2.9985754,1.4992877,1.4992877)"><path
             d="m 200,270 h -20 10 -13.63"
             style="fill:none;stroke:#000000;stroke-width:1;stroke-linecap:butt;stroke-linejoin:miter;stroke-miterlimit:10;stroke-dasharray:none;stroke-opacity:1"
             id="path360" /><path
             d="m 171.12,270 7,-3.5 -1.75,3.5 1.75,3.5 z"
             style="fill:#000000;fill-opacity:1;fill-rule:nonzero;stroke:none"
             id="path362" /><path
             d="m 171.12,270 7,-3.5 -1.75,3.5 1.75,3.5 z"
             style="fill:none;stroke:#000000;stroke-width:1;stroke-linecap:butt;stroke-linejoin:miter;stroke-miterlimit:10;stroke-dasharray:none;stroke-opacity:1"
             id="path364" /><path
             d="m 200,240 h 120 v 60 H 200 Z"
             style="fill:#dae8fc;fill-opacity:1;fill-rule:nonzero;stroke:none"
             id="path366" /><path
             d="m 200,240 h 120 v 60 H 200 Z"
             style="fill:none;stroke:#6c8ebf;stroke-width:1;stroke-linecap:butt;stroke-linejoin:miter;stroke-miterlimit:10;stroke-dasharray:none;stroke-opacity:1"
             id="path368" /></g><g
           id="g370"
           transform="scale(2.9985754)"><text
             transform="translate(247.98438,274)"
             style="font-variant:normal;font-weight:normal;font-size:12px;font-family:Arial;-inkscape-font-specification:ArialMT;writing-mode:lr-tb;fill:#000000;fill-opacity:1;fill-rule:nonzero;stroke:none"
             id="text374"><tspan
               x="0 8.0039062 16.007812"
               y="0"
               sodipodi:role="line"
               id="tspan372">BPE</tspan></text></g><g
           id="g376"
           transform="matrix(2.9985754,0,0,2.9985754,1.4992877,1.4992877)"><path
             d="m 370,240 h 120 v 60 H 370 Z"
             style="fill:#d5e8d4;fill-opacity:1;fill-rule:nonzero;stroke:none"
             id="path378" /><path
             d="m 370,240 h 120 v 60 H 370 Z"
             style="fill:none;stroke:#82b366;stroke-width:1;stroke-linecap:butt;stroke-linejoin:miter;stroke-miterlimit:10;stroke-dasharray:none;stroke-opacity:1"
             id="path380" /></g><g
           id="g382"
           transform="scale(2.9985754)"><text
             transform="translate(416,274)"
             style="font-variant:normal;font-weight:normal;font-size:12px;font-family:Arial;-inkscape-font-specification:ArialMT;writing-mode:lr-tb;fill:#000000;fill-opacity:1;fill-rule:nonzero;stroke:none"
             id="text386"><tspan
               x="0 7.3300781 15.996094 19.330078"
               y="0"
               sodipodi:role="line"
               id="tspan384">FHIR</tspan></text></g><g
           id="g388"
           transform="matrix(2.9985754,0,0,2.9985754,1.4992877,1.4992877)"><path
             d="m 120,80 h 50 v 60 h -50 z"
             style="fill:#f5f5f5;fill-opacity:1;fill-rule:nonzero;stroke:none"
             id="path390" /><path
             d="m 120,80 h 50 v 60 h -50 z"
             style="fill:none;stroke:#666666;stroke-width:1;stroke-linecap:butt;stroke-linejoin:miter;stroke-miterlimit:10;stroke-dasharray:none;stroke-opacity:1"
             id="path392" /></g><g
           id="g394"
           transform="scale(2.9985754)"><text
             transform="translate(130.65625,107)"
             style="font-style:italic;font-variant:normal;font-size:12px;font-family:Arial;-inkscape-font-specification:Arial-ItalicMT;writing-mode:lr-tb;fill:#333333;fill-opacity:1;fill-rule:nonzero;stroke:none"
             id="text398"><tspan
               x="0 6.6738281 13.347656 19.347656 26.021484"
               y="0"
               sodipodi:role="line"
               id="tspan396">Local</tspan></text><text
             transform="translate(122,122)"
             style="font-style:italic;font-variant:normal;font-size:12px;font-family:Arial;-inkscape-font-specification:Arial-ItalicMT;writing-mode:lr-tb;fill:#333333;fill-opacity:1;fill-rule:nonzero;stroke:none"
             id="text402"><tspan
               x="0 8.0039062 14.003906 20.003906 23.337891 30.011719 40.007812"
               y="0"
               sodipodi:role="line"
               id="tspan400">Systems</tspan></text></g><g
           id="g404"
           transform="matrix(2.9985754,0,0,2.9985754,1.4992877,1.4992877)"><path
             d="m 354.5,160 v -3 h 1 v 3 m -1,-6 v -3 h 1 v 3 m -1,-6 v -3 h 1 v 3 m -1,-6 v -3 h 1 v 3 m -1,-6 v -3 h 1 v 3 m -1,-6 v -3 h 1 v 3 m -1,-6 v -3 h 1 v 3 m -1,-6 v -3 h 1 v 3 m -1,-6 v -3 h 1 v 3 m -1,-6 v -3 h 1 v 3 m -1,-6 v -3 h 1 v 3 m -1,-6 v -3 h 1 v 3 m -1,-6 v -3 h 1 v 3 m -1,-6 v -3 h 1 v 3 m -1,-6 v -3 h 1 v 3 m -1,-6 v -3 h 1 v 3 m -1,-6 v -3 h 1 v 3"
             style="fill:#9f9f9f;fill-opacity:1;fill-rule:nonzero;stroke:none"
             id="path406" /><path
             d="m 354.5,320 v -3 h 1 v 3 m -1,-6 v -3 h 1 v 3 m -1,-6 v -3 h 1 v 3 m -1,-6 v -3 h 1 v 3 m -1,-6 v -3 h 1 v 3 m -1,-6 v -3 h 1 v 3 m -1,-6 v -3 h 1 v 3 m -1,-6 v -3 h 1 v 3 m -1,-6 v -3 h 1 v 3 m -1,-6 v -3 h 1 v 3 m -1,-6 v -3 h 1 v 3 m -1,-6 v -3 h 1 v 3 m -1,-6 v -3 h 1 v 3 m -1,-6 v -3 h 1 v 3 m -1,-6 v -3 h 1 v 3 m -1,-6 v -3 h 1 v 3 m -1,-6 v -3 h 1 v 3"
             style="fill:#9f9f9f;fill-opacity:1;fill-rule:nonzero;stroke:none"
             id="path408" /><path
             d="m 120,240 h 50 v 60 h -50 z"
             style="fill:#f5f5f5;fill-opacity:1;fill-rule:nonzero;stroke:none"
             id="path410" /><path
             d="m 120,240 h 50 v 60 h -50 z"
             style="fill:none;stroke:#666666;stroke-width:1;stroke-linecap:butt;stroke-linejoin:miter;stroke-miterlimit:10;stroke-dasharray:none;stroke-opacity:1"
             id="path412" /></g><g
           id="g414"
           transform="scale(2.9985754)"><text
             transform="translate(130.65625,267)"
             style="font-style:italic;font-variant:normal;font-size:12px;font-family:Arial;-inkscape-font-specification:Arial-ItalicMT;writing-mode:lr-tb;fill:#333333;fill-opacity:1;fill-rule:nonzero;stroke:none"
             id="text418"><tspan
               x="0 6.6738281 13.347656 19.347656 26.021484"
               y="0"
               sodipodi:role="line"
               id="tspan416">Local</tspan></text><text
             transform="translate(122,282)"
             style="font-style:italic;font-variant:normal;font-size:12px;font-family:Arial;-inkscape-font-specification:Arial-ItalicMT;writing-mode:lr-tb;fill:#333333;fill-opacity:1;fill-rule:nonzero;stroke:none"
             id="text422"><tspan
               x="0 8.0039062 14.003906 20.003906 23.337891 30.011719 40.007812"
               y="0"
               sodipodi:role="line"
               id="tspan420">Systems</tspan></text></g><g
           id="g424"
           transform="matrix(2.9985754,0,0,2.9985754,1.4992877,1.4992877)"><path
             d="m 920,160 h 50 v 60 h -50 z"
             style="fill:#f5f5f5;fill-opacity:1;fill-rule:nonzero;stroke:none"
             id="path426" /><path
             d="m 920,160 h 50 v 60 h -50 z"
             style="fill:none;stroke:#666666;stroke-width:1;stroke-linecap:butt;stroke-linejoin:miter;stroke-miterlimit:10;stroke-dasharray:none;stroke-opacity:1"
             id="path428" /></g><g
           id="g430"
           transform="scale(2.9985754)"><text
             transform="translate(930.65625,187)"
             style="font-style:italic;font-variant:normal;font-size:12px;font-family:Arial;-inkscape-font-specification:Arial-ItalicMT;writing-mode:lr-tb;fill:#333333;fill-opacity:1;fill-rule:nonzero;stroke:none"
             id="text434"><tspan
               x="0 6.6738281 13.347656 19.347656 26.021484"
               y="0"
               sodipodi:role="line"
               id="tspan432">Local</tspan></text><text
             transform="translate(922,202)"
             style="font-style:italic;font-variant:normal;font-size:12px;font-family:Arial;-inkscape-font-specification:Arial-ItalicMT;writing-mode:lr-tb;fill:#333333;fill-opacity:1;fill-rule:nonzero;stroke:none"
             id="text438"><tspan
               x="0 8.0039062 14.003906 20.003906 23.337891 30.011719 40.007812"
               y="0"
               sodipodi:role="line"
               id="tspan436">Systems</tspan></text></g><g
           id="g440"
           transform="matrix(2.9985754,0,0,2.9985754,1.4992877,1.4992877)"><path
             d="m 734.5,240 v -3 h 1 v 3 m -1,-6 v -3 h 1 v 3 m -1,-6 v -3 h 1 v 3 m -1,-6 v -3 h 1 v 3 m -1,-6 v -3 h 1 v 3 m -1,-6 v -3 h 1 v 3 m -1,-6 v -3 h 1 v 3 m -1,-6 v -3 h 1 v 3 m -1,-6 v -3 h 1 v 3 m -1,-6 v -3 h 1 v 3 m -1,-6 v -3 h 1 v 3 m -1,-6 v -3 h 1 v 3 m -1,-6 v -3 h 1 v 3 m -1,-6 v -3 h 1 v 3 m -1,-6 v -3 h 1 v 3 m -1,-6 v -3 h 1 v 3 m -1,-6 v -3 h 1 v 3"
             style="fill:#9f9f9f;fill-opacity:1;fill-rule:nonzero;stroke:none"
             id="path442" /><path
             d="m 479.5,233.63 v -3 h 1 v 3 m -1,-6 v -3 h 1 v 3 m -1,-6 v -3 h 1 v 3 m -1,-6 v -3 h 1 v 3 m -1,-6 v -3 h 1 v 3 m -1,-6 v -3 h 1 v 3 m -1,-6 v -3 h 1 v 3 m -1,-6 v -3 h 1 v 3 m -1,-6 v -3 h 1 v 3 m -1,-6 v -3 h 1 v 3 m -1,-6 v -3 h 1 v 3 m -1,-6 v -3 h 1 v 3 m -1,-6 v -3 h 1 v 3 m -1,-6 v -3 h 1 v 3 m -1,-6 v -3 h 1 v 3"
             style="fill:#000000;fill-opacity:1;fill-rule:nonzero;stroke:none"
             id="path444" /><path
             d="m 480,238.88 -3.5,-7 3.5,1.75 3.5,-1.75 z"
             style="fill:#000000;fill-opacity:1;fill-rule:nonzero;stroke:none"
             id="path446" /><path
             d="m 480,238.88 -3.5,-7 3.5,1.75 3.5,-1.75 z"
             style="fill:none;stroke:#000000;stroke-width:1;stroke-linecap:butt;stroke-linejoin:miter;stroke-miterlimit:10;stroke-dasharray:none;stroke-opacity:1"
             id="path448" /><path
             d="m 480,141.11999 3.5,7 -3.5,-1.75 -3.5,1.75 z"
             style="fill:#000000;fill-opacity:1;fill-rule:nonzero;stroke:none"
             id="path450" /><path
             d="m 480,141.11999 3.5,7 -3.5,-1.75 -3.5,1.75 z"
             style="fill:none;stroke:#000000;stroke-width:1;stroke-linecap:butt;stroke-linejoin:miter;stroke-miterlimit:10;stroke-dasharray:none;stroke-opacity:1"
             id="path452" /></g><g
           id="g454"
           transform="scale(2.9985754)"><text
             transform="translate(583.07813,136)"
             style="font-variant:normal;font-weight:normal;font-size:11px;font-family:Arial;-inkscape-font-specification:ArialMT;writing-mode:lr-tb;fill:#5f5f5f;fill-opacity:1;fill-rule:nonzero;stroke:none"
             id="text458"><tspan
               x="0 7.9438477 17.106934"
               y="0"
               sodipodi:role="line"
               id="tspan456">DMZ</tspan></text><text
             transform="translate(736.34375,136)"
             style="font-variant:normal;font-weight:normal;font-size:11px;font-family:Arial;-inkscape-font-specification:ArialMT;writing-mode:lr-tb;fill:#5f5f5f;fill-opacity:1;fill-rule:nonzero;stroke:none"
             id="text462"><tspan
               x="0 3.0561523 9.1738281 12.22998 15.893066 22.010742 28.128418 34.246094"
               y="0"
               sodipodi:role="line"
               id="tspan460">Intranet</tspan></text></g></g></g></g></svg>
