<?xml version="1.0" encoding="utf-8"?>
<!-- Generator: Adobe Illustrator 27.4.0, SVG Export Plug-In . SVG Version: 6.00 Build 0)  -->
<svg version="1.1" id="Ebene_1" xmlns="http://www.w3.org/2000/svg" xmlns:xlink="http://www.w3.org/1999/xlink" x="0px" y="0px"
	 viewBox="0 0 161.4 198.4" style="enable-background:new 0 0 161.4 198.4;" xml:space="preserve">
<style type="text/css">
	.st0{fill:url(#SVGID_1_);}
	.st1{fill:url(#SVGID_00000156572829004094988820000003907441696411303580_);}
	.st2{fill:#326F95;}
	.st3{fill:url(#SVGID_00000118370014166280020800000007937531333148150429_);}
	.st4{fill:url(#SVGID_00000143605408851765245050000005042355182137921670_);}
	.st5{fill:#FFFFFF;}
	.st6{fill:none;stroke:#FFED00;stroke-miterlimit:10;}
</style>
<g>
	<linearGradient id="SVGID_1_" gradientUnits="userSpaceOnUse" x1="114.3218" y1="28.4941" x2="57.0792" y2="85.7366">
		<stop  offset="1.898166e-03" style="stop-color:#63C7A6"/>
		<stop  offset="0.4868" style="stop-color:#54AEA0"/>
		<stop  offset="1" style="stop-color:#3F8999"/>
	</linearGradient>
	<path class="st0" d="M144.8,61.2c0.1-1.7-0.7-3.3-2.2-4.2L84,23.1c-2.6-1.5-5.8-1.5-8.5,0L34.6,46.8c-0.4-0.1-0.8-0.1-1.2-0.1
		c-3.5,0-6.4,2.9-6.4,6.4s2.9,6.4,6.4,6.4c3.1,0,5.7-2.2,6.2-5.1l40.1-23.2l52.2,30.1l-48.7,28L81.1,88c-0.8-0.5-1.8-0.5-2.6,0
		l-5.3,3.1c-0.8,0.5-1.3,1.3-1.3,2.3v6.1c0,0.9,0.5,1.8,1.3,2.2l5.3,3.1c0.8,0.5,1.8,0.5,2.6,0l5.3-3.1c0.8-0.5,1.3-1.3,1.3-2.3
		v-2.4l54.9-31.6C144.1,64.6,144.9,62.9,144.8,61.2z"/>
	
		<linearGradient id="SVGID_00000003826566880651023530000015668579997520155822_" gradientUnits="userSpaceOnUse" x1="124.2661" y1="52.7343" x2="29.1258" y2="147.8745">
		<stop  offset="2.847631e-03" style="stop-color:#54AEA0"/>
		<stop  offset="0.4878" style="stop-color:#3F8999"/>
		<stop  offset="1" style="stop-color:#326F95"/>
	</linearGradient>
	<path style="fill:url(#SVGID_00000003826566880651023530000015668579997520155822_);" d="M140.8,71.9c-3.5,0-6.4,2.9-6.4,6.4
		c0,1.8,0.7,3.4,1.9,4.5v46.3l-54.1,31.2v-42.3c0-0.1,0-0.1,0-0.1c0-0.2,0-0.3,0-0.5c0-0.1,0-0.3-0.1-0.4c0-0.1-0.1-0.3-0.1-0.4
		c0-0.1-0.1-0.3-0.2-0.4c-0.1-0.1-0.1-0.3-0.2-0.4c-0.1-0.1-0.1-0.3-0.2-0.4c-0.1-0.1-0.2-0.2-0.3-0.3c-0.1-0.1-0.2-0.2-0.3-0.3
		c-0.1-0.1-0.2-0.2-0.3-0.3c-0.1-0.1-0.3-0.2-0.4-0.3c0,0-0.1-0.1-0.1-0.1l-15.5-9V87.6l15.5-9c2.2-1.2,2.9-4,1.6-6.1
		c-1.2-2.2-4-2.9-6.1-1.6l-13.7,7.9L20.6,59.4l0,0C20,59.1,19.3,59,18.7,59c-2.5,0-4.5,2-4.5,4.5v66c0,3,1.6,5.8,4.2,7.3l36.3,21
		c0.7,2.7,3.2,4.7,6.2,4.7c3.5,0,6.4-2.9,6.4-6.4s-2.9-6.4-6.4-6.4c-0.6,0-1.1,0.1-1.7,0.2l-36-20.8V70.5l32.5,15.3
		c-0.1,0.5-0.1,1-0.1,1.4v18.2c0,3,1.6,5.8,4.2,7.3l13.5,7.8v45.2c0,1.6,0.9,3.1,2.2,3.9c1.3,0.8,2.8,1.1,4.2,1.1
		c1.5,0,2.9-0.4,4.2-1.1l57.1-33c2.6-1.5,4.2-4.3,4.2-7.3V82.8c1.2-1.2,1.9-2.8,1.9-4.5C147.2,74.8,144.4,71.9,140.8,71.9z"/>
</g>
</svg>
