<?xml version="1.0" encoding="utf-8"?>
<!-- Generator: Adobe Illustrator 27.4.0, SVG Export Plug-In . SVG Version: 6.00 Build 0)  -->
<svg version="1.1" id="Ebene_1" xmlns="http://www.w3.org/2000/svg" xmlns:xlink="http://www.w3.org/1999/xlink" x="0px" y="0px"
	 viewBox="0 0 479.5 198.4" style="enable-background:new 0 0 479.5 198.4;" xml:space="preserve">
<style type="text/css">
	.st0{fill:url(#SVGID_1_);}
	.st1{fill:url(#SVGID_00000125603339891512578430000012278954562109176469_);}
	.st2{fill:#326F95;}
	.st3{fill:url(#SVGID_00000135652753865357309310000012776426329541253774_);}
	.st4{fill:url(#SVGID_00000160167707881422351160000016661434209111111100_);}
	.st5{fill:#FFFFFF;}
	.st6{fill:none;stroke:#FFED00;stroke-miterlimit:10;}
</style>
<g>
	<linearGradient id="SVGID_1_" gradientUnits="userSpaceOnUse" x1="114.3243" y1="28.4941" x2="57.0818" y2="85.7366">
		<stop  offset="1.898166e-03" style="stop-color:#63C7A6"/>
		<stop  offset="0.4868" style="stop-color:#54AEA0"/>
		<stop  offset="1" style="stop-color:#3F8999"/>
	</linearGradient>
	<path class="st0" d="M144.8,61.2c0.1-1.7-0.7-3.3-2.2-4.2L84,23.1c-2.6-1.5-5.8-1.5-8.5,0L34.6,46.8c-0.4-0.1-0.8-0.1-1.2-0.1
		c-3.5,0-6.4,2.9-6.4,6.4s2.9,6.4,6.4,6.4c3.1,0,5.7-2.2,6.2-5.1l40.1-23.2l52.2,30.1l-48.7,28L81.1,88c-0.8-0.5-1.8-0.5-2.6,0
		l-5.3,3.1c-0.8,0.5-1.3,1.3-1.3,2.3v6.1c0,0.9,0.5,1.8,1.3,2.2l5.3,3.1c0.8,0.5,1.8,0.5,2.6,0l5.3-3.1c0.8-0.5,1.3-1.3,1.3-2.3
		v-2.4l54.9-31.6C144.1,64.6,144.9,62.9,144.8,61.2z"/>
	
		<linearGradient id="SVGID_00000118368068298299590620000007969243083848034742_" gradientUnits="userSpaceOnUse" x1="124.2686" y1="52.7343" x2="29.1283" y2="147.8745">
		<stop  offset="2.847631e-03" style="stop-color:#54AEA0"/>
		<stop  offset="0.4878" style="stop-color:#3F8999"/>
		<stop  offset="1" style="stop-color:#326F95"/>
	</linearGradient>
	<path style="fill:url(#SVGID_00000118368068298299590620000007969243083848034742_);" d="M140.8,71.9c-3.5,0-6.4,2.9-6.4,6.4
		c0,1.8,0.7,3.4,1.9,4.5v46.3l-54.1,31.2v-42.3c0-0.1,0-0.1,0-0.1c0-0.2,0-0.3,0-0.5c0-0.1,0-0.3-0.1-0.4c0-0.1-0.1-0.3-0.1-0.4
		c0-0.1-0.1-0.3-0.2-0.4c-0.1-0.1-0.1-0.3-0.2-0.4c-0.1-0.1-0.1-0.3-0.2-0.4c-0.1-0.1-0.2-0.2-0.3-0.3c-0.1-0.1-0.2-0.2-0.3-0.3
		c-0.1-0.1-0.2-0.2-0.3-0.3c-0.1-0.1-0.3-0.2-0.4-0.3c0,0-0.1-0.1-0.1-0.1l-15.5-9V87.6l15.5-9c2.2-1.2,2.9-4,1.6-6.1
		c-1.2-2.2-4-2.9-6.1-1.6l-13.7,7.9L20.6,59.4l0,0C20,59.1,19.4,59,18.7,59c-2.5,0-4.5,2-4.5,4.5v66c0,3,1.6,5.8,4.2,7.3l36.3,21
		c0.7,2.7,3.2,4.7,6.2,4.7c3.5,0,6.4-2.9,6.4-6.4s-2.9-6.4-6.4-6.4c-0.6,0-1.1,0.1-1.7,0.2l-36-20.8V70.5l32.5,15.3
		c-0.1,0.5-0.1,1-0.1,1.4v18.2c0,3,1.6,5.8,4.2,7.3l13.5,7.8v45.2c0,1.6,0.9,3.1,2.2,3.9c1.3,0.8,2.8,1.1,4.2,1.1
		c1.5,0,2.9-0.4,4.2-1.1l57.1-33c2.6-1.5,4.2-4.3,4.2-7.3V82.8c1.2-1.2,1.9-2.8,1.9-4.5C147.2,74.8,144.4,71.9,140.8,71.9z"/>
</g>
<g>
	<g>
		<path class="st2" d="M179.7,56.9V22h12.4c7.9,0,13.4,4,13.4,15.2v4.6c0,11.1-5.5,15.2-13.4,15.2H179.7z M198.4,41.7v-4.6
			c0-6-1.6-9.2-6.3-9.2h-5.3v22.9h5.3C196.8,50.9,198.4,47.8,198.4,41.7z"/>
		<path class="st2" d="M207.7,56.9L219.8,22h6.8l12.1,34.9h-7.5l-2.1-6.6h-11.7l-2.1,6.6H207.7z M219.3,44.3h7.9L223.2,32
			L219.3,44.3z"/>
		<path class="st2" d="M264.5,22v6h-9.6v28.9h-7.1V28h-9.6v-6H264.5z"/>
		<path class="st2" d="M263.9,56.9L276,22h6.8l12.1,34.9h-7.5l-2.1-6.6h-11.7l-2.1,6.6H263.9z M275.5,44.3h7.9L279.4,32L275.5,44.3z
			"/>
	</g>
	<g>
		<g>
			<path class="st2" d="M197.3,87.9c-1.5-2.4-3.2-3.5-6.7-3.5c-3.1,0-4.8,1.5-4.8,3.8c0,2.7,2.2,3.9,6.7,5.1
				c7.1,1.8,10.3,4.6,10.3,10.7c0,5.7-3.7,10.2-11.7,10.2c-6,0-10.1-1.7-13.1-5.7l5.3-3.7c1.8,2.3,3.9,3.5,7.4,3.5
				c3.9,0,5.3-1.8,5.3-3.9c0-2.4-1.4-3.8-6.9-5.3c-6.7-1.8-10-5.1-10-10.9c0-5.5,3.5-9.8,11.6-9.8c5.4,0,9.5,1.9,11.9,5.7
				L197.3,87.9z"/>
			<path class="st2" d="M215.8,92.7h11.8V78.8h6.9v34.9h-6.9V98.7h-11.8v15.1h-6.9V78.8h6.9V92.7z"/>
			<path class="st2" d="M238.7,113.7l11.8-34.9h6.6l11.8,34.9h-7.3l-2.1-6.6h-11.4l-2.1,6.6H238.7z M250,101.1h7.7l-3.8-12.3
				L250,101.1z"/>
			<path class="st2" d="M291.7,113.7l-6.1-13.7h-5.5v13.7h-6.9V78.8h12.2c7.8,0,12.7,3.6,12.7,10.7c0,4.7-2.1,7.8-5.8,9.4l7,14.9
				H291.7z M284.7,94.1c4.1,0,6.5-0.9,6.5-4.6s-2.4-4.7-6.5-4.7h-4.6v9.2H284.7z"/>
			<path class="st2" d="M312,113.7h-6.9V78.8h6.9V113.7z"/>
			<path class="st2" d="M345.8,78.8v34.9H340l-13.2-21.6v21.6h-6.5V78.8h5.7l13.3,21.9V78.8H345.8z"/>
			<path class="st2" d="M378,95.6v3.2c0,10.7-4.8,15.4-12.5,15.4c-7.6,0-13-4.8-13-15.4v-4.5c0-11.3,5.4-15.9,13-15.9
				c7.1,0,11.4,4.1,12.5,11.3h-6.6c-0.6-3.2-2.4-5.3-5.9-5.3c-4,0-6.1,2.8-6.1,9.5v5c0,6.7,2.1,9.5,6.1,9.5c3.9,0,5.5-2.5,5.9-6.7
				h-5.7v-6H378z"/>
		</g>
	</g>
	<g>
		<g>
			<path class="st2" d="M201.3,135.7v2.7h-17.6v13.6h16.1v2.7h-16.1v15.9h-2.9v-34.9H201.3z"/>
			<path class="st2" d="M229.4,170.5l-7.7-14.9c-0.8,0.1-1.5,0.1-2.3,0.1h-7.9v14.8h-2.9v-34.9h10.9c7.9,0,12.4,3.4,12.4,10.1
				c0,5-2.6,8.1-7.2,9.4l8.1,15.4H229.4z M219.4,153c6.1,0,9.5-2.1,9.5-7.3c0-5.2-3.4-7.3-9.5-7.3h-7.9V153H219.4z"/>
			<path class="st2" d="M235.7,170.5l11.9-34.9h2.7l11.9,34.9h-3.1l-2.9-8.5h-14.7l-2.8,8.5H235.7z M242.6,159.3h12.8l-6.4-19
				L242.6,159.3z"/>
			<path class="st2" d="M282.6,158.9l11.6-23.2h2.9v34.9h-2.9v-28.5l-10.3,20.7h-2.6l-10.2-20.6v28.4h-2.9v-34.9h2.8L282.6,158.9z"
				/>
			<path class="st2" d="M327.3,135.7v2.7h-17.6v12.7h16.1v2.7h-16.1v14h17.6v2.7h-20.5v-34.9H327.3z"/>
			<path class="st2" d="M333.8,135.7l7,29.4l8.6-29.4h3l8.8,29l6.9-29h3l-8.5,34.9h-3.1l-8.5-29.6l-8.5,29.6h-3.1l-8.5-34.9H333.8z"
				/>
			<path class="st2" d="M387.5,170.8c-7.5,0-12.4-4.7-12.4-15.7V151c0-11,4.9-15.7,12.4-15.7c7.5,0,12.4,4.7,12.4,15.7v4.1
				C399.9,166.2,395,170.8,387.5,170.8z M378,155.2c0,9.5,3.7,12.9,9.5,12.9c5.7,0,9.5-3.5,9.5-12.9V151c0-9.4-3.7-12.9-9.5-12.9
				c-5.7,0-9.5,3.5-9.5,12.9V155.2z"/>
			<path class="st2" d="M428.8,170.5l-7.7-14.9c-0.8,0.1-1.5,0.1-2.3,0.1h-7.9v14.8h-2.9v-34.9h10.9c7.9,0,12.4,3.4,12.4,10.1
				c0,5-2.6,8.1-7.2,9.4l8.1,15.4H428.8z M418.7,153c6.1,0,9.5-2.1,9.5-7.3c0-5.2-3.4-7.3-9.5-7.3h-7.9V153H418.7z"/>
			<path class="st2" d="M461.8,170.5L449,151.9l-7.1,8.4v10.2H439v-34.9h2.9v20.3l17-20.3h3.8l-11.8,14l14.4,20.9H461.8z"/>
		</g>
	</g>
</g>
<!--<rect class="st6" width="479.5" height="198.4"/>-->
</svg>
